%TF.GenerationSoftware,KiCad,Pcbnew,8.0.3*%
%TF.CreationDate,2024-10-06T13:34:10+03:00*%
%TF.ProjectId,Linefollower V6,4c696e65-666f-46c6-9c6f-776572205636,rev?*%
%TF.SameCoordinates,Original*%
%TF.FileFunction,Profile,NP*%
%FSLAX46Y46*%
G04 Gerber Fmt 4.6, Leading zero omitted, Abs format (unit mm)*
G04 Created by KiCad (PCBNEW 8.0.3) date 2024-10-06 13:34:10*
%MOMM*%
%LPD*%
G01*
G04 APERTURE LIST*
%TA.AperFunction,Profile*%
%ADD10C,0.100000*%
%TD*%
G04 APERTURE END LIST*
D10*
X124300625Y-112501822D02*
X183200625Y-112501822D01*
X203695000Y-110486822D02*
X189200625Y-110501822D01*
X183200625Y-110501822D02*
X124300625Y-110501822D01*
X189200625Y-112501822D02*
X201255000Y-112476822D01*
X124300625Y-110501822D02*
X124300625Y-112501822D01*
X118300625Y-110501822D02*
X103695000Y-110486822D01*
X118300625Y-112501822D02*
X118300625Y-110501822D01*
X106255000Y-112476822D02*
X118300625Y-112501822D01*
X183200625Y-112501822D02*
X183200625Y-110501822D01*
X189200625Y-110501822D02*
X189200625Y-112501822D01*
X202770625Y-106805572D02*
G75*
G02*
X199770625Y-106805572I-1500000J0D01*
G01*
X199770625Y-106805572D02*
G75*
G02*
X202770625Y-106805572I1500000J0D01*
G01*
X62188547Y-92490572D02*
X82188547Y-92490572D01*
X60713547Y-63940572D02*
G75*
G02*
X63713547Y-63940572I1500000J0D01*
G01*
X246663547Y-89040572D02*
G75*
G02*
X243663547Y-89040572I-1500000J0D01*
G01*
X102755000Y-115976822D02*
G75*
G02*
X106255000Y-112476797I3499925J100D01*
G01*
X62188547Y-60490572D02*
X112188547Y-60490572D01*
X187770625Y-106805572D02*
G75*
G02*
X184770625Y-106805572I-1500000J0D01*
G01*
X184770625Y-106805572D02*
G75*
G02*
X187770625Y-106805572I1500000J0D01*
G01*
X202755000Y-115976822D02*
G75*
G02*
X199755000Y-115976822I-1500000J0D01*
G01*
X199755000Y-115976822D02*
G75*
G02*
X202755000Y-115976822I1500000J0D01*
G01*
X225188547Y-92490572D02*
X245188547Y-92490572D01*
X243666452Y-83040572D02*
G75*
G02*
X246666452Y-83040572I1500000J0D01*
G01*
X243663547Y-89040572D02*
X243666452Y-83040572D01*
X122760625Y-115976822D02*
G75*
G02*
X119760625Y-115976822I-1500000J0D01*
G01*
X119760625Y-115976822D02*
G75*
G02*
X122760625Y-115976822I1500000J0D01*
G01*
X107755000Y-115976822D02*
G75*
G02*
X104755000Y-115976822I-1500000J0D01*
G01*
X104755000Y-115976822D02*
G75*
G02*
X107755000Y-115976822I1500000J0D01*
G01*
X63710642Y-69940572D02*
X63713547Y-63940572D01*
X62188547Y-92490572D02*
G75*
G02*
X58688525Y-88990572I-22J3500000D01*
G01*
X102755000Y-127976822D02*
X102755000Y-115976822D01*
X204755000Y-127976822D02*
G75*
G02*
X201255000Y-131476797I-3499975J0D01*
G01*
X63713547Y-88965572D02*
X63716452Y-82965572D01*
X246663547Y-89040572D02*
X246666452Y-83040572D01*
X187760625Y-115976822D02*
G75*
G02*
X184760625Y-115976822I-1500000J0D01*
G01*
X184760625Y-115976822D02*
G75*
G02*
X187760625Y-115976822I1500000J0D01*
G01*
X122770625Y-106805572D02*
G75*
G02*
X119770625Y-106805572I-1500000J0D01*
G01*
X119770625Y-106805572D02*
G75*
G02*
X122770625Y-106805572I1500000J0D01*
G01*
X107770625Y-106805572D02*
G75*
G02*
X104770625Y-106805572I-1500000J0D01*
G01*
X104770625Y-106805572D02*
G75*
G02*
X107770625Y-106805572I1500000J0D01*
G01*
X60710642Y-69940572D02*
X60713547Y-63940572D01*
X201255000Y-112476822D02*
G75*
G02*
X204755025Y-115976822I25J-3500000D01*
G01*
X60713547Y-88965572D02*
X60716452Y-82965572D01*
X63713547Y-88965572D02*
G75*
G02*
X60713547Y-88965572I-1500000J0D01*
G01*
X58688547Y-88990572D02*
X58688547Y-63990572D01*
X195188547Y-60490572D02*
X178677500Y-70490572D01*
X106255000Y-131476822D02*
G75*
G02*
X102755025Y-127976822I25J3500000D01*
G01*
X60716452Y-82965572D02*
G75*
G02*
X63716452Y-82965572I1500000J0D01*
G01*
X243660642Y-70015572D02*
X243663547Y-64015572D01*
X204755000Y-115976822D02*
X204755000Y-127976822D01*
X128702500Y-70490572D02*
X112188547Y-60490572D01*
X128702500Y-70490572D02*
X178677500Y-70490572D01*
X201255000Y-131476822D02*
X106255000Y-131476822D01*
X245188547Y-60490572D02*
G75*
G02*
X248688525Y-63990572I-22J-3500000D01*
G01*
X58688547Y-63990572D02*
G75*
G02*
X62188547Y-60490574I3500058J-60D01*
G01*
X195188547Y-60490572D02*
X245188547Y-60490572D01*
X243663547Y-64015572D02*
G75*
G02*
X246663547Y-64015572I1500000J0D01*
G01*
X82188547Y-92490572D02*
X103695000Y-110486822D01*
X203695000Y-110486822D02*
X225188547Y-92490572D01*
X246660642Y-70015572D02*
G75*
G02*
X243660642Y-70015572I-1500000J0D01*
G01*
X248688547Y-63990572D02*
X248688547Y-88990572D01*
X246660642Y-70015572D02*
X246663547Y-64015572D01*
X248688547Y-88990572D02*
G75*
G02*
X245188547Y-92490494I-3500122J200D01*
G01*
X63710642Y-69940572D02*
G75*
G02*
X60710642Y-69940572I-1500000J0D01*
G01*
M02*
