M48
; DRILL file {KiCad 8.0.3} date 2024-10-06T13:34:17+0300
; FORMAT={-:-/ absolute / metric / decimal}
; #@! TF.CreationDate,2024-10-06T13:34:17+03:00
; #@! TF.GenerationSoftware,Kicad,Pcbnew,8.0.3
; #@! TF.FileFunction,Plated,1,2,PTH
FMAT,2
METRIC
; #@! TA.AperFunction,Plated,PTH,ComponentDrill
T1C0.200
; #@! TA.AperFunction,Plated,PTH,ViaDrill
T2C0.300
; #@! TA.AperFunction,Plated,PTH,ComponentDrill
T3C0.600
; #@! TA.AperFunction,Plated,PTH,ComponentDrill
T4C0.900
; #@! TA.AperFunction,Plated,PTH,ComponentDrill
T5C1.000
; #@! TA.AperFunction,Plated,PTH,ComponentDrill
T6C1.500
%
G90
G05
T1
X163.067Y-89.847
X163.067Y-91.347
X163.067Y-92.847
X164.567Y-89.847
X164.567Y-91.347
X164.567Y-92.847
T2
X92.196Y-70.906
X92.746Y-70.906
X92.746Y-72.706
X93.346Y-70.931
X93.346Y-72.706
X93.921Y-70.906
X93.921Y-72.656
X94.571Y-72.606
X94.596Y-71.281
X94.646Y-71.981
X95.631Y-82.951
X96.179Y-83.499
X96.581Y-74.676
X96.727Y-84.047
X97.129Y-75.224
X97.275Y-84.56
X97.677Y-75.772
X98.225Y-76.285
X100.41Y-68.721
X101.28Y-68.708
X102.1Y-68.681
X103.106Y-81.201
X103.146Y-72.781
X103.196Y-72.131
X103.623Y-91.258
X103.654Y-81.749
X103.771Y-73.106
X103.896Y-72.481
X104.171Y-91.806
X104.202Y-82.297
X104.321Y-73.031
X104.719Y-92.354
X104.75Y-82.81
X105.267Y-92.866
X110.806Y-89.126
X111.354Y-89.674
X111.902Y-90.222
X112.45Y-90.735
X116.171Y-96.831
X116.921Y-96.806
X117.696Y-96.806
X118.471Y-96.806
X121.746Y-92.456
X122.496Y-92.431
X123.271Y-92.431
X124.046Y-92.431
X124.446Y-98.081
X124.696Y-98.756
X124.921Y-97.556
X125.071Y-98.181
X125.471Y-98.656
X125.621Y-97.731
X126.021Y-98.256
X126.896Y-96.831
X127.646Y-96.806
X128.421Y-96.806
X129.196Y-96.806
X132.496Y-98.781
X135.796Y-92.556
X136.546Y-92.531
X137.321Y-92.531
X138.096Y-92.531
X143.271Y-87.556
X143.471Y-86.131
X143.846Y-88.206
X144.046Y-85.481
X145.371Y-83.331
X146.571Y-92.106
X146.621Y-91.281
X146.646Y-90.406
X149.821Y-90.131
X150.021Y-83.556
X150.146Y-88.506
X150.396Y-90.606
X150.646Y-89.006
X150.671Y-83.556
X151.746Y-89.156
X152.421Y-89.806
X153.021Y-90.356
X153.221Y-103.031
X153.496Y-98.781
X153.946Y-103.056
X154.171Y-94.956
X154.196Y-95.856
X154.721Y-103.031
X154.796Y-94.956
X154.821Y-95.856
X154.996Y-86.381
X155.421Y-94.956
X155.446Y-95.856
X155.546Y-103.031
X155.571Y-86.981
X155.83Y-90.594
X156.171Y-87.631
X156.621Y-83.856
X156.621Y-84.481
X156.746Y-105.331
X156.921Y-85.106
X157.296Y-83.856
X157.296Y-84.556
X157.446Y-105.306
X158.196Y-105.331
X158.504Y-90.426
X158.92Y-92.154
X159.021Y-105.281
X159.204Y-91.066
X159.605Y-77.316
X159.846Y-105.281
X159.935Y-76.626
X160.005Y-77.976
X160.134Y-91.036
X160.835Y-76.486
X161.745Y-76.566
X161.745Y-78.046
X162.205Y-77.246
X166.165Y-84.806
X166.175Y-84.106
X166.545Y-74.246
X166.625Y-76.426
X166.645Y-75.646
X166.665Y-77.856
X167.835Y-74.266
X167.855Y-75.536
X167.865Y-76.366
X167.875Y-77.816
X169.196Y-78.006
X169.196Y-78.756
X169.196Y-79.556
X169.196Y-80.356
X169.196Y-81.156
X169.196Y-81.956
X169.196Y-82.781
X170.521Y-93.806
X170.571Y-94.631
X170.796Y-92.306
X217.021Y-74.956
X217.046Y-75.606
X217.071Y-77.406
X217.071Y-78.131
X217.571Y-74.381
X217.696Y-78.631
X218.721Y-74.381
X218.721Y-78.631
X219.796Y-78.631
X219.896Y-74.406
X220.296Y-74.981
X220.296Y-75.656
X220.296Y-77.356
X220.296Y-78.056
X229.271Y-81.206
T4
X103.04Y-62.791
X105.04Y-62.791
X107.04Y-62.791
T5
X93.215Y-64.353
X95.755Y-64.353
X115.571Y-79.661
X115.571Y-82.201
X115.571Y-84.741
X115.571Y-87.281
X120.221Y-79.661
X120.221Y-82.201
X120.221Y-84.741
X120.221Y-87.281
X124.871Y-79.661
X124.871Y-82.201
X124.871Y-84.741
X124.871Y-87.281
X129.421Y-79.661
X129.421Y-82.201
X129.421Y-84.741
X129.421Y-87.281
X134.071Y-79.661
X134.071Y-82.201
X134.071Y-84.741
X134.071Y-87.281
X134.44Y-74.616
X136.98Y-74.616
X138.671Y-79.706
X138.671Y-82.246
X138.671Y-84.786
X138.671Y-87.326
X139.52Y-74.616
X142.06Y-74.616
X195.821Y-65.206
X195.821Y-67.746
X195.821Y-70.286
X195.821Y-72.826
T6
X100.94Y-62.791
X109.14Y-62.791
T3
G00X149.37Y-73.391
M15
G01X149.37Y-72.791
M16
G05
G00X149.37Y-77.821
M15
G01X149.37Y-76.721
M16
G05
G00X158.01Y-73.391
M15
G01X158.01Y-72.791
M16
G05
G00X158.01Y-77.821
M15
G01X158.01Y-76.721
M16
G05
M30
