%TF.GenerationSoftware,KiCad,Pcbnew,8.0.3*%
%TF.CreationDate,2024-10-06T13:34:10+03:00*%
%TF.ProjectId,Linefollower V6,4c696e65-666f-46c6-9c6f-776572205636,rev?*%
%TF.SameCoordinates,Original*%
%TF.FileFunction,Legend,Bot*%
%TF.FilePolarity,Positive*%
%FSLAX46Y46*%
G04 Gerber Fmt 4.6, Leading zero omitted, Abs format (unit mm)*
G04 Created by KiCad (PCBNEW 8.0.3) date 2024-10-06 13:34:10*
%MOMM*%
%LPD*%
G01*
G04 APERTURE LIST*
%ADD10C,0.200000*%
%ADD11C,0.100000*%
%ADD12C,0.150000*%
G04 APERTURE END LIST*
D10*
X124770625Y-106805572D02*
G75*
G02*
X117770625Y-106805572I-3500000J0D01*
G01*
X117770625Y-106805572D02*
G75*
G02*
X124770625Y-106805572I3500000J0D01*
G01*
X109770625Y-106805572D02*
G75*
G02*
X102770625Y-106805572I-3500000J0D01*
G01*
X102770625Y-106805572D02*
G75*
G02*
X109770625Y-106805572I3500000J0D01*
G01*
D11*
X65690000Y-88990572D02*
G75*
G02*
X58690000Y-88990572I-3500000J0D01*
G01*
X248690000Y-88990572D02*
X248690000Y-63990572D01*
D10*
X189770625Y-106805572D02*
G75*
G02*
X182770625Y-106805572I-3500000J0D01*
G01*
X182770625Y-106805572D02*
G75*
G02*
X189770625Y-106805572I3500000J0D01*
G01*
D11*
X241690000Y-63990572D02*
X241690000Y-88990572D01*
X58690000Y-63990572D02*
X58690000Y-88990572D01*
X241690000Y-63990572D02*
G75*
G02*
X248690000Y-63990572I3500000J0D01*
G01*
X65690000Y-88990572D02*
X65690000Y-63990572D01*
D10*
X204755000Y-115976822D02*
G75*
G02*
X197755000Y-115976822I-3500000J0D01*
G01*
X197755000Y-115976822D02*
G75*
G02*
X204755000Y-115976822I3500000J0D01*
G01*
X204770625Y-106805572D02*
G75*
G02*
X197770625Y-106805572I-3500000J0D01*
G01*
X197770625Y-106805572D02*
G75*
G02*
X204770625Y-106805572I3500000J0D01*
G01*
X109755000Y-115976822D02*
G75*
G02*
X102755000Y-115976822I-3500000J0D01*
G01*
X102755000Y-115976822D02*
G75*
G02*
X109755000Y-115976822I3500000J0D01*
G01*
X189760625Y-115976822D02*
G75*
G02*
X182760625Y-115976822I-3500000J0D01*
G01*
X182760625Y-115976822D02*
G75*
G02*
X189760625Y-115976822I3500000J0D01*
G01*
X124760625Y-115976822D02*
G75*
G02*
X117760625Y-115976822I-3500000J0D01*
G01*
X117760625Y-115976822D02*
G75*
G02*
X124760625Y-115976822I3500000J0D01*
G01*
D11*
X248690000Y-88990572D02*
G75*
G02*
X241690000Y-88990572I-3500000J0D01*
G01*
X58690000Y-63990572D02*
G75*
G02*
X65690000Y-63990572I3500000J0D01*
G01*
D12*
X245875713Y-76810343D02*
X245875713Y-76210343D01*
X245875713Y-76210343D02*
X245675713Y-76638914D01*
X245675713Y-76638914D02*
X245475713Y-76210343D01*
X245475713Y-76210343D02*
X245475713Y-76810343D01*
X245247142Y-76210343D02*
X244875714Y-76210343D01*
X244875714Y-76210343D02*
X245075714Y-76438914D01*
X245075714Y-76438914D02*
X244989999Y-76438914D01*
X244989999Y-76438914D02*
X244932857Y-76467486D01*
X244932857Y-76467486D02*
X244904285Y-76496057D01*
X244904285Y-76496057D02*
X244875714Y-76553200D01*
X244875714Y-76553200D02*
X244875714Y-76696057D01*
X244875714Y-76696057D02*
X244904285Y-76753200D01*
X244904285Y-76753200D02*
X244932857Y-76781772D01*
X244932857Y-76781772D02*
X244989999Y-76810343D01*
X244989999Y-76810343D02*
X245161428Y-76810343D01*
X245161428Y-76810343D02*
X245218571Y-76781772D01*
X245218571Y-76781772D02*
X245247142Y-76753200D01*
X62675713Y-76385343D02*
X62675713Y-75785343D01*
X62675713Y-75785343D02*
X62475713Y-76213914D01*
X62475713Y-76213914D02*
X62275713Y-75785343D01*
X62275713Y-75785343D02*
X62275713Y-76385343D01*
X62047142Y-75785343D02*
X61675714Y-75785343D01*
X61675714Y-75785343D02*
X61875714Y-76013914D01*
X61875714Y-76013914D02*
X61789999Y-76013914D01*
X61789999Y-76013914D02*
X61732857Y-76042486D01*
X61732857Y-76042486D02*
X61704285Y-76071057D01*
X61704285Y-76071057D02*
X61675714Y-76128200D01*
X61675714Y-76128200D02*
X61675714Y-76271057D01*
X61675714Y-76271057D02*
X61704285Y-76328200D01*
X61704285Y-76328200D02*
X61732857Y-76356772D01*
X61732857Y-76356772D02*
X61789999Y-76385343D01*
X61789999Y-76385343D02*
X61961428Y-76385343D01*
X61961428Y-76385343D02*
X62018571Y-76356772D01*
X62018571Y-76356772D02*
X62047142Y-76328200D01*
X89153366Y-78951048D02*
X88153366Y-78951048D01*
X88153366Y-78951048D02*
X88867651Y-79284381D01*
X88867651Y-79284381D02*
X88153366Y-79617714D01*
X88153366Y-79617714D02*
X89153366Y-79617714D01*
X89153366Y-80617714D02*
X89153366Y-80046286D01*
X89153366Y-80332000D02*
X88153366Y-80332000D01*
X88153366Y-80332000D02*
X88296223Y-80236762D01*
X88296223Y-80236762D02*
X88391461Y-80141524D01*
X88391461Y-80141524D02*
X88439080Y-80046286D01*
X219509523Y-80160391D02*
X219509523Y-79160391D01*
X219509523Y-79160391D02*
X219176190Y-79874676D01*
X219176190Y-79874676D02*
X218842857Y-79160391D01*
X218842857Y-79160391D02*
X218842857Y-80160391D01*
X218414285Y-79255629D02*
X218366666Y-79208010D01*
X218366666Y-79208010D02*
X218271428Y-79160391D01*
X218271428Y-79160391D02*
X218033333Y-79160391D01*
X218033333Y-79160391D02*
X217938095Y-79208010D01*
X217938095Y-79208010D02*
X217890476Y-79255629D01*
X217890476Y-79255629D02*
X217842857Y-79350867D01*
X217842857Y-79350867D02*
X217842857Y-79446105D01*
X217842857Y-79446105D02*
X217890476Y-79588962D01*
X217890476Y-79588962D02*
X218461904Y-80160391D01*
X218461904Y-80160391D02*
X217842857Y-80160391D01*
M02*
