%TF.GenerationSoftware,KiCad,Pcbnew,8.0.3*%
%TF.CreationDate,2024-10-06T13:34:10+03:00*%
%TF.ProjectId,Linefollower V6,4c696e65-666f-46c6-9c6f-776572205636,rev?*%
%TF.SameCoordinates,Original*%
%TF.FileFunction,Soldermask,Bot*%
%TF.FilePolarity,Negative*%
%FSLAX46Y46*%
G04 Gerber Fmt 4.6, Leading zero omitted, Abs format (unit mm)*
G04 Created by KiCad (PCBNEW 8.0.3) date 2024-10-06 13:34:10*
%MOMM*%
%LPD*%
G01*
G04 APERTURE LIST*
G04 Aperture macros list*
%AMRoundRect*
0 Rectangle with rounded corners*
0 $1 Rounding radius*
0 $2 $3 $4 $5 $6 $7 $8 $9 X,Y pos of 4 corners*
0 Add a 4 corners polygon primitive as box body*
4,1,4,$2,$3,$4,$5,$6,$7,$8,$9,$2,$3,0*
0 Add four circle primitives for the rounded corners*
1,1,$1+$1,$2,$3*
1,1,$1+$1,$4,$5*
1,1,$1+$1,$6,$7*
1,1,$1+$1,$8,$9*
0 Add four rect primitives between the rounded corners*
20,1,$1+$1,$2,$3,$4,$5,0*
20,1,$1+$1,$4,$5,$6,$7,0*
20,1,$1+$1,$6,$7,$8,$9,0*
20,1,$1+$1,$8,$9,$2,$3,0*%
G04 Aperture macros list end*
%ADD10R,1.700000X1.700000*%
%ADD11O,1.700000X1.700000*%
%ADD12O,2.200000X3.500000*%
%ADD13R,1.500000X2.500000*%
%ADD14O,1.500000X2.500000*%
%ADD15C,0.650000*%
%ADD16O,1.000000X2.100000*%
%ADD17O,1.000000X1.600000*%
%ADD18RoundRect,0.375000X0.875000X-0.375000X0.875000X0.375000X-0.875000X0.375000X-0.875000X-0.375000X0*%
G04 APERTURE END LIST*
D10*
%TO.C,J1*%
X93215000Y-64353072D03*
D11*
X95755000Y-64353072D03*
%TD*%
D12*
%TO.C,SW1*%
X109140000Y-62790572D03*
X100940000Y-62790572D03*
D13*
X107040000Y-62790572D03*
D14*
X105040000Y-62790572D03*
X103040000Y-62790572D03*
%TD*%
D10*
%TO.C,J8*%
X120220625Y-79660572D03*
D11*
X120220625Y-82200572D03*
X120220625Y-84740572D03*
X120220625Y-87280572D03*
%TD*%
D10*
%TO.C,J10*%
X129420625Y-79660572D03*
D11*
X129420625Y-82200572D03*
X129420625Y-84740572D03*
X129420625Y-87280572D03*
%TD*%
D10*
%TO.C,J5*%
X195820625Y-65205572D03*
D11*
X195820625Y-67745572D03*
X195820625Y-70285572D03*
X195820625Y-72825572D03*
%TD*%
D10*
%TO.C,J11*%
X134070625Y-79660572D03*
D11*
X134070625Y-82200572D03*
X134070625Y-84740572D03*
X134070625Y-87280572D03*
%TD*%
D10*
%TO.C,J9*%
X124870625Y-79660572D03*
D11*
X124870625Y-82200572D03*
X124870625Y-84740572D03*
X124870625Y-87280572D03*
%TD*%
D10*
%TO.C,J7*%
X115570625Y-79660572D03*
D11*
X115570625Y-82200572D03*
X115570625Y-84740572D03*
X115570625Y-87280572D03*
%TD*%
D10*
%TO.C,J3*%
X134440000Y-74615572D03*
D11*
X136980000Y-74615572D03*
X139520000Y-74615572D03*
X142060000Y-74615572D03*
%TD*%
D10*
%TO.C,J12*%
X138670625Y-79705572D03*
D11*
X138670625Y-82245572D03*
X138670625Y-84785572D03*
X138670625Y-87325572D03*
%TD*%
D15*
%TO.C,J2*%
X156580000Y-76740572D03*
X150800000Y-76740572D03*
D16*
X158010000Y-77270572D03*
D17*
X158010000Y-73090572D03*
D16*
X149370000Y-77270572D03*
D17*
X149370000Y-73090572D03*
%TD*%
D18*
%TO.C,M1*%
X88688547Y-77540572D03*
X88663547Y-75490572D03*
%TD*%
%TO.C,M2*%
X218690000Y-77530572D03*
X218665000Y-75480572D03*
%TD*%
M02*
