%TF.GenerationSoftware,KiCad,Pcbnew,8.0.3*%
%TF.CreationDate,2024-10-06T13:34:10+03:00*%
%TF.ProjectId,Linefollower V6,4c696e65-666f-46c6-9c6f-776572205636,rev?*%
%TF.SameCoordinates,Original*%
%TF.FileFunction,Copper,L2,Bot*%
%TF.FilePolarity,Positive*%
%FSLAX46Y46*%
G04 Gerber Fmt 4.6, Leading zero omitted, Abs format (unit mm)*
G04 Created by KiCad (PCBNEW 8.0.3) date 2024-10-06 13:34:10*
%MOMM*%
%LPD*%
G01*
G04 APERTURE LIST*
G04 Aperture macros list*
%AMRoundRect*
0 Rectangle with rounded corners*
0 $1 Rounding radius*
0 $2 $3 $4 $5 $6 $7 $8 $9 X,Y pos of 4 corners*
0 Add a 4 corners polygon primitive as box body*
4,1,4,$2,$3,$4,$5,$6,$7,$8,$9,$2,$3,0*
0 Add four circle primitives for the rounded corners*
1,1,$1+$1,$2,$3*
1,1,$1+$1,$4,$5*
1,1,$1+$1,$6,$7*
1,1,$1+$1,$8,$9*
0 Add four rect primitives between the rounded corners*
20,1,$1+$1,$2,$3,$4,$5,0*
20,1,$1+$1,$4,$5,$6,$7,0*
20,1,$1+$1,$6,$7,$8,$9,0*
20,1,$1+$1,$8,$9,$2,$3,0*%
G04 Aperture macros list end*
%TA.AperFunction,ComponentPad*%
%ADD10R,1.700000X1.700000*%
%TD*%
%TA.AperFunction,ComponentPad*%
%ADD11O,1.700000X1.700000*%
%TD*%
%TA.AperFunction,ComponentPad*%
%ADD12O,2.200000X3.500000*%
%TD*%
%TA.AperFunction,ComponentPad*%
%ADD13R,1.500000X2.500000*%
%TD*%
%TA.AperFunction,ComponentPad*%
%ADD14O,1.500000X2.500000*%
%TD*%
%TA.AperFunction,HeatsinkPad*%
%ADD15C,0.500000*%
%TD*%
%TA.AperFunction,HeatsinkPad*%
%ADD16R,2.000000X3.500000*%
%TD*%
%TA.AperFunction,ComponentPad*%
%ADD17O,1.000000X2.100000*%
%TD*%
%TA.AperFunction,ComponentPad*%
%ADD18O,1.000000X1.600000*%
%TD*%
%TA.AperFunction,SMDPad,CuDef*%
%ADD19RoundRect,0.375000X0.875000X-0.375000X0.875000X0.375000X-0.875000X0.375000X-0.875000X-0.375000X0*%
%TD*%
%TA.AperFunction,ViaPad*%
%ADD20C,0.600000*%
%TD*%
%TA.AperFunction,ViaPad*%
%ADD21C,0.500000*%
%TD*%
%TA.AperFunction,Conductor*%
%ADD22C,1.000000*%
%TD*%
%TA.AperFunction,Conductor*%
%ADD23C,0.300000*%
%TD*%
%TA.AperFunction,Conductor*%
%ADD24C,0.200000*%
%TD*%
%TA.AperFunction,Conductor*%
%ADD25C,0.600000*%
%TD*%
G04 APERTURE END LIST*
D10*
%TO.P,J1,1,Pin_1*%
%TO.N,+BATT*%
X93215000Y-64353072D03*
D11*
%TO.P,J1,2,Pin_2*%
%TO.N,Net-(J1-Pin_2)*%
X95755000Y-64353072D03*
%TD*%
D12*
%TO.P,SW1,*%
%TO.N,*%
X109140000Y-62790572D03*
X100940000Y-62790572D03*
D13*
%TO.P,SW1,1,A*%
%TO.N,GND*%
X107040000Y-62790572D03*
D14*
%TO.P,SW1,2,B*%
%TO.N,Net-(J1-Pin_2)*%
X105040000Y-62790572D03*
%TO.P,SW1,3,C*%
%TO.N,unconnected-(SW1-C-Pad3)*%
X103040000Y-62790572D03*
%TD*%
D10*
%TO.P,J8,1,Pin_1*%
%TO.N,SDA*%
X120220625Y-79660572D03*
D11*
%TO.P,J8,2,Pin_2*%
%TO.N,SCL*%
X120220625Y-82200572D03*
%TO.P,J8,3,Pin_3*%
%TO.N,+3.3V*%
X120220625Y-84740572D03*
%TO.P,J8,4,Pin_4*%
%TO.N,GND*%
X120220625Y-87280572D03*
%TD*%
D10*
%TO.P,J10,1,Pin_1*%
%TO.N,/PC13*%
X129420625Y-79660572D03*
D11*
%TO.P,J10,2,Pin_2*%
%TO.N,/PC14*%
X129420625Y-82200572D03*
%TO.P,J10,3,Pin_3*%
%TO.N,+3.3V*%
X129420625Y-84740572D03*
%TO.P,J10,4,Pin_4*%
%TO.N,GND*%
X129420625Y-87280572D03*
%TD*%
D10*
%TO.P,J5,1,Pin_1*%
%TO.N,SDA*%
X195820625Y-65205572D03*
D11*
%TO.P,J5,2,Pin_2*%
%TO.N,SCL*%
X195820625Y-67745572D03*
%TO.P,J5,3,Pin_3*%
%TO.N,+3.3V*%
X195820625Y-70285572D03*
%TO.P,J5,4,Pin_4*%
%TO.N,GND*%
X195820625Y-72825572D03*
%TD*%
D10*
%TO.P,J11,1,Pin_1*%
%TO.N,/PC15*%
X134070625Y-79660572D03*
D11*
%TO.P,J11,2,Pin_2*%
%TO.N,/PA15*%
X134070625Y-82200572D03*
%TO.P,J11,3,Pin_3*%
%TO.N,+3.3V*%
X134070625Y-84740572D03*
%TO.P,J11,4,Pin_4*%
%TO.N,GND*%
X134070625Y-87280572D03*
%TD*%
D10*
%TO.P,J9,1,Pin_1*%
%TO.N,KillSW*%
X124870625Y-79660572D03*
D11*
%TO.P,J9,2,Pin_2*%
%TO.N,StartSW*%
X124870625Y-82200572D03*
%TO.P,J9,3,Pin_3*%
%TO.N,GND*%
X124870625Y-84740572D03*
%TO.P,J9,4,Pin_4*%
%TO.N,+3.3V*%
X124870625Y-87280572D03*
%TD*%
D15*
%TO.P,U4,17,GND*%
%TO.N,GND*%
X164566949Y-92846632D03*
X164566949Y-91346632D03*
X164566949Y-89846632D03*
D16*
X163816949Y-91346632D03*
D15*
X163066949Y-92846632D03*
X163066949Y-91346632D03*
X163066949Y-89846632D03*
%TD*%
D10*
%TO.P,J7,1,Pin_1*%
%TO.N,SDA*%
X115570625Y-79660572D03*
D11*
%TO.P,J7,2,Pin_2*%
%TO.N,SCL*%
X115570625Y-82200572D03*
%TO.P,J7,3,Pin_3*%
%TO.N,+3.3V*%
X115570625Y-84740572D03*
%TO.P,J7,4,Pin_4*%
%TO.N,GND*%
X115570625Y-87280572D03*
%TD*%
D10*
%TO.P,J3,1,Pin_1*%
%TO.N,GND*%
X134440000Y-74615572D03*
D11*
%TO.P,J3,2,Pin_2*%
%TO.N,SWCLK*%
X136980000Y-74615572D03*
%TO.P,J3,3,Pin_3*%
%TO.N,SWDIO*%
X139520000Y-74615572D03*
%TO.P,J3,4,Pin_4*%
%TO.N,+3.3V*%
X142060000Y-74615572D03*
%TD*%
D10*
%TO.P,J12,1,Pin_1*%
%TO.N,SCK*%
X138670625Y-79705572D03*
D11*
%TO.P,J12,2,Pin_2*%
%TO.N,MOSI*%
X138670625Y-82245572D03*
%TO.P,J12,3,Pin_3*%
%TO.N,MISO*%
X138670625Y-84785572D03*
%TO.P,J12,4,Pin_4*%
%TO.N,GND*%
X138670625Y-87325572D03*
%TD*%
D17*
%TO.P,J2,S1,SHIELD*%
%TO.N,GND*%
X158010000Y-77270572D03*
D18*
X158010000Y-73090572D03*
D17*
X149370000Y-77270572D03*
D18*
X149370000Y-73090572D03*
%TD*%
D19*
%TO.P,M1,1,+*%
%TO.N,Net-(M1-+)*%
X88688547Y-77540572D03*
%TO.P,M1,2,-*%
%TO.N,Net-(M1--)*%
X88663547Y-75490572D03*
%TD*%
%TO.P,M2,1,+*%
%TO.N,Net-(M2-+)*%
X218690000Y-77530572D03*
%TO.P,M2,2,-*%
%TO.N,Net-(M2--)*%
X218665000Y-75480572D03*
%TD*%
D20*
%TO.N,+BATT*%
X93345625Y-70930572D03*
X169195625Y-81155572D03*
X94595625Y-71280572D03*
X92195625Y-70905572D03*
X94570625Y-72605572D03*
X169195625Y-79555572D03*
X93920625Y-72655572D03*
X94645625Y-71980572D03*
X169195625Y-78755572D03*
X92745625Y-70905572D03*
X169195625Y-78005572D03*
X169195625Y-81955572D03*
X169195625Y-82780572D03*
X92745625Y-72705572D03*
X169195625Y-80355572D03*
X93920625Y-70905572D03*
X93345625Y-72705572D03*
%TO.N,GND*%
X135795625Y-92555572D03*
X122495625Y-92430572D03*
X167835000Y-74265572D03*
X156620625Y-84480572D03*
X136545625Y-92530572D03*
X160005000Y-77975572D03*
X118470625Y-96805572D03*
X104718632Y-92353579D03*
X96178943Y-83499245D03*
X156620625Y-83855572D03*
X150670625Y-83555572D03*
X97274958Y-84559905D03*
X162205000Y-77245572D03*
X116170625Y-96830572D03*
X157445625Y-105305572D03*
X96726950Y-84047252D03*
X159935000Y-76625572D03*
X159845625Y-105280572D03*
X127645625Y-96805572D03*
X159020625Y-105280572D03*
X103653943Y-81749245D03*
X138095625Y-92530572D03*
X111353943Y-89674245D03*
X104170625Y-91805572D03*
X104749958Y-82809905D03*
X111901950Y-90222252D03*
X126895625Y-96830572D03*
X161745000Y-78045572D03*
X150145625Y-88505572D03*
X149820625Y-90130572D03*
X167875000Y-77815572D03*
X112449958Y-90734905D03*
X95630936Y-82951238D03*
X103622618Y-91257565D03*
X156920625Y-85105572D03*
X98224958Y-76284905D03*
X123270625Y-92430572D03*
X96580936Y-74676238D03*
X116920625Y-96805572D03*
X97676950Y-75772252D03*
X137320625Y-92530572D03*
X167855000Y-75535572D03*
X103105936Y-81201238D03*
X166625000Y-76425572D03*
X158920000Y-92154417D03*
X128420625Y-96805572D03*
X124045625Y-92430572D03*
X121745625Y-92455572D03*
X101280000Y-68708072D03*
X102100000Y-68680572D03*
X158195625Y-105330572D03*
X117695625Y-96805572D03*
X160835000Y-76485572D03*
X150020625Y-83555572D03*
X157295625Y-84555572D03*
X155830000Y-90594417D03*
X159605000Y-77315572D03*
X105266640Y-92866232D03*
X97128943Y-75224245D03*
X167865000Y-76365572D03*
X166545000Y-74245572D03*
X156745625Y-105330572D03*
X100410000Y-68720572D03*
X161745000Y-76565572D03*
X166665000Y-77855572D03*
X129195625Y-96805572D03*
X150395625Y-90605572D03*
X110805936Y-89126238D03*
X150645625Y-89005572D03*
X157295625Y-83855572D03*
X166645000Y-75645572D03*
X104201950Y-82297252D03*
%TO.N,+3.3V*%
X104320625Y-73030572D03*
X125470625Y-98655572D03*
X126020625Y-98255572D03*
X153220625Y-103030572D03*
X103895625Y-72480572D03*
X124920625Y-97555572D03*
X229270625Y-81205572D03*
X125070625Y-98180572D03*
X103770625Y-73105572D03*
X124445625Y-98080572D03*
X155545625Y-103030572D03*
X103145625Y-72780572D03*
X103195625Y-72130572D03*
X124695625Y-98755572D03*
X154720625Y-103030572D03*
X125620625Y-97730572D03*
X153945625Y-103055572D03*
%TO.N,Net-(M1-+)*%
X154195625Y-95855572D03*
X155445625Y-95855572D03*
X154820625Y-95855572D03*
%TO.N,Net-(M1--)*%
X154170625Y-94955572D03*
X155420625Y-94955572D03*
X154795625Y-94955572D03*
%TO.N,Net-(M2-+)*%
X217695625Y-78630572D03*
X217070625Y-78130572D03*
X220295625Y-78055572D03*
X218720625Y-78630572D03*
X217070625Y-77405572D03*
X220295625Y-77355572D03*
X219795625Y-78630572D03*
%TO.N,Net-(M2--)*%
X220295625Y-75655572D03*
X218720625Y-74380572D03*
X219895625Y-74405572D03*
X217570625Y-74380572D03*
X220295625Y-74980572D03*
X217045625Y-75605572D03*
X217020625Y-74955572D03*
%TO.N,V_MOT*%
X166175000Y-84105572D03*
X166165000Y-84805572D03*
D21*
X158503845Y-90426155D03*
X160133845Y-91036155D03*
X159203845Y-91066155D03*
D20*
%TO.N,SDA*%
X143470625Y-86130572D03*
%TO.N,SCL*%
X144045625Y-85480572D03*
%TO.N,KillSW*%
X143270625Y-87555572D03*
%TO.N,StartSW*%
X143845625Y-88205572D03*
%TO.N,/PC14*%
X146620625Y-91280572D03*
X170570625Y-94630572D03*
%TO.N,/PC13*%
X170795625Y-92305572D03*
X146645625Y-90405572D03*
%TO.N,/PA15*%
X153495625Y-98780572D03*
X132495625Y-98780572D03*
X145370625Y-83330572D03*
%TO.N,/PC15*%
X146570625Y-92105572D03*
X170520625Y-93805572D03*
%TO.N,/LED_R*%
X152420625Y-89805572D03*
X155570625Y-86980572D03*
%TO.N,/LED_B*%
X153020625Y-90355572D03*
X156170625Y-87630572D03*
%TO.N,/LED_G*%
X154995625Y-86380572D03*
X151745625Y-89155572D03*
%TD*%
D22*
%TO.N,+BATT*%
X157070625Y-93755572D02*
X113570625Y-93755572D01*
X169195625Y-80355572D02*
X169195625Y-79555572D01*
X172645625Y-94230572D02*
X170945625Y-95930572D01*
X92195625Y-70905572D02*
X92745625Y-70905572D01*
X93920625Y-72655572D02*
X93345625Y-72705572D01*
X94570625Y-72605572D02*
X94645625Y-71980572D01*
X172645625Y-86230572D02*
X172645625Y-94230572D01*
X94595625Y-71280572D02*
X93920625Y-72655572D01*
X169195625Y-79555572D02*
X169195625Y-78755572D01*
X93345625Y-72705572D02*
X93345625Y-70930572D01*
X170945625Y-95930572D02*
X159245625Y-95930572D01*
X93215000Y-70436197D02*
X93215000Y-64353072D01*
X93345625Y-73305572D02*
X94570625Y-72605572D01*
X93920625Y-72655572D02*
X93920625Y-70905572D01*
X169195625Y-78755572D02*
X169195625Y-78005572D01*
X92745625Y-72705572D02*
X92745625Y-72705572D01*
X113570625Y-93755572D02*
X93215000Y-73399947D01*
X93215000Y-73174947D02*
X93345625Y-73305572D01*
X93345625Y-72705572D02*
X92745625Y-72705572D01*
X92195625Y-72155572D02*
X92195625Y-70905572D01*
X169195625Y-80355572D02*
X169195625Y-81155572D01*
X169195625Y-82780572D02*
X169195625Y-81955572D01*
X93215000Y-73399947D02*
X93215000Y-73174947D01*
X169195625Y-82780572D02*
X172645625Y-86230572D01*
X159245625Y-95930572D02*
X157070625Y-93755572D01*
X92745625Y-72705572D02*
X92745625Y-70905572D01*
X169195625Y-81155572D02*
X169195625Y-81955572D01*
X92745625Y-70905572D02*
X93215000Y-70436197D01*
X92745625Y-72705572D02*
X92195625Y-72155572D01*
X94645625Y-71980572D02*
X94595625Y-71280572D01*
%TO.N,GND*%
X129420625Y-87280572D02*
X138625625Y-87280572D01*
X115570625Y-87280572D02*
X120220625Y-87280572D01*
X124870625Y-84740572D02*
X126880625Y-84740572D01*
X126880625Y-84740572D02*
X129420625Y-87280572D01*
X122330625Y-87280572D02*
X124870625Y-84740572D01*
X120220625Y-87280572D02*
X122330625Y-87280572D01*
X138625625Y-87280572D02*
X138670625Y-87325572D01*
%TO.N,+3.3V*%
X140070625Y-72830572D02*
X104245625Y-72830572D01*
X141295625Y-72830572D02*
X140070625Y-72830572D01*
X155545625Y-103030572D02*
X130395625Y-103030572D01*
X140070625Y-72830572D02*
X145745625Y-72830572D01*
X163395625Y-72080572D02*
X185295625Y-72080572D01*
X103895625Y-72480572D02*
X103595625Y-72830572D01*
X103145625Y-72780572D02*
X103145625Y-72380572D01*
X197320625Y-63155572D02*
X198245625Y-64080572D01*
X125470625Y-98105572D02*
X125620625Y-98255572D01*
X145745625Y-72830572D02*
X147970625Y-75055572D01*
X160420625Y-75055572D02*
X163395625Y-72080572D01*
X124920625Y-97555572D02*
X124695625Y-97780572D01*
X103545625Y-72780572D02*
X103145625Y-72780572D01*
X125620625Y-97730572D02*
X125095625Y-97730572D01*
X125470625Y-98655572D02*
X125470625Y-98105572D01*
X124695625Y-97780572D02*
X124695625Y-98755572D01*
X194220625Y-63155572D02*
X197320625Y-63155572D01*
X142060000Y-73594947D02*
X141295625Y-72830572D01*
D23*
X229270625Y-81205572D02*
X218350625Y-70285572D01*
D22*
X142060000Y-74615572D02*
X142060000Y-73594947D01*
X104245625Y-72830572D02*
X103895625Y-72480572D01*
X198245625Y-64080572D02*
X198245625Y-70285572D01*
X130395625Y-103030572D02*
X126020625Y-98655572D01*
X126020625Y-98655572D02*
X125470625Y-98655572D01*
X125095625Y-97730572D02*
X124920625Y-97555572D01*
X125620625Y-98255572D02*
X125620625Y-97730572D01*
X198245625Y-70285572D02*
X195820625Y-70285572D01*
X185295625Y-72080572D02*
X194220625Y-63155572D01*
D23*
X218350625Y-70285572D02*
X195820625Y-70285572D01*
D22*
X147970625Y-75055572D02*
X160420625Y-75055572D01*
X103595625Y-72830572D02*
X103545625Y-72780572D01*
D23*
%TO.N,Net-(M1-+)*%
X92030625Y-77540572D02*
X88688547Y-77540572D01*
X110345625Y-95855572D02*
X92030625Y-77540572D01*
X154195625Y-95855572D02*
X155445625Y-95855572D01*
X154195625Y-95855572D02*
X110345625Y-95855572D01*
%TO.N,Net-(M1--)*%
X154170625Y-94955572D02*
X155420625Y-94955572D01*
X154170625Y-94955572D02*
X111370625Y-94955572D01*
X111370625Y-94955572D02*
X91905625Y-75490572D01*
X91905625Y-75490572D02*
X88663547Y-75490572D01*
D22*
%TO.N,V_MOT*%
X159203845Y-91066155D02*
X159904417Y-91066155D01*
X159904417Y-91066155D02*
X165802500Y-85168072D01*
X165802500Y-85168072D02*
X166175000Y-84795572D01*
X158503845Y-90426155D02*
X158563845Y-90426155D01*
D24*
X159203845Y-91066155D02*
X158513845Y-91066155D01*
D22*
X165802500Y-85168072D02*
X166165000Y-84805572D01*
D25*
X166175000Y-84795572D02*
X166165000Y-84805572D01*
D22*
X166175000Y-84795572D02*
X166175000Y-84105572D01*
D24*
X158513845Y-91066155D02*
X158503845Y-91056155D01*
D22*
X158563845Y-90426155D02*
X159203845Y-91066155D01*
D23*
%TO.N,SDA*%
X123425625Y-76455572D02*
X120220625Y-79660572D01*
X146545625Y-81330572D02*
X141670625Y-76455572D01*
X159695625Y-81380572D02*
X163345625Y-77730572D01*
X165945625Y-72955572D02*
X185845625Y-72955572D01*
X193595625Y-65205572D02*
X195820625Y-65205572D01*
X143470625Y-86130572D02*
X144420625Y-86130572D01*
X146545625Y-81530572D02*
X146695625Y-81380572D01*
X146545625Y-84005572D02*
X146545625Y-81530572D01*
X146695625Y-81380572D02*
X159695625Y-81380572D01*
X141670625Y-76455572D02*
X123425625Y-76455572D01*
X120220625Y-79660572D02*
X115570625Y-79660572D01*
X185845625Y-72955572D02*
X193595625Y-65205572D01*
X144420625Y-86130572D02*
X146545625Y-84005572D01*
X163345625Y-75555572D02*
X165945625Y-72955572D01*
X163345625Y-77730572D02*
X163345625Y-75555572D01*
X146545625Y-81530572D02*
X146545625Y-81330572D01*
%TO.N,SCL*%
X146045625Y-83755572D02*
X146045625Y-81580572D01*
X159945625Y-82805572D02*
X148770625Y-82805572D01*
X146045625Y-81580572D02*
X141445625Y-76980572D01*
X120220625Y-82080572D02*
X120220625Y-82200572D01*
X142870625Y-85430572D02*
X143995625Y-85430572D01*
X164345625Y-78405572D02*
X159945625Y-82805572D01*
X195820625Y-67745572D02*
X192155625Y-67745572D01*
X141445625Y-76980572D02*
X125195625Y-76980572D01*
X115570625Y-82200572D02*
X120220625Y-82200572D01*
X192155625Y-67745572D02*
X186420625Y-73480572D01*
X186420625Y-73480572D02*
X166245625Y-73480572D01*
X143995625Y-85430572D02*
X144045625Y-85480572D01*
X144320625Y-85480572D02*
X146045625Y-83755572D01*
X144695625Y-86880572D02*
X142920625Y-86880572D01*
X164345625Y-75380572D02*
X164345625Y-78405572D01*
X120220625Y-81955572D02*
X120220625Y-82200572D01*
X148770625Y-82805572D02*
X144695625Y-86880572D01*
X142570625Y-85730572D02*
X142870625Y-85430572D01*
X166245625Y-73480572D02*
X164345625Y-75380572D01*
X142920625Y-86880572D02*
X142570625Y-86530572D01*
X142570625Y-86530572D02*
X142570625Y-85730572D01*
X144045625Y-85480572D02*
X144320625Y-85480572D01*
X125195625Y-76980572D02*
X120220625Y-81955572D01*
%TO.N,KillSW*%
X130395625Y-80955572D02*
X126165625Y-80955572D01*
X126165625Y-80955572D02*
X124870625Y-79660572D01*
X142227731Y-87555572D02*
X140195625Y-85523466D01*
X139120625Y-83505572D02*
X132945625Y-83505572D01*
X132945625Y-83505572D02*
X130395625Y-80955572D01*
X143270625Y-87555572D02*
X142227731Y-87555572D01*
X140195625Y-84580572D02*
X139120625Y-83505572D01*
X140195625Y-85523466D02*
X140195625Y-84580572D01*
%TO.N,StartSW*%
X129970625Y-83480572D02*
X126150625Y-83480572D01*
X142170625Y-88205572D02*
X139995625Y-86030572D01*
X126150625Y-83480572D02*
X124870625Y-82200572D01*
X143845625Y-88205572D02*
X142170625Y-88205572D01*
X132520625Y-86030572D02*
X129970625Y-83480572D01*
X139995625Y-86030572D02*
X132520625Y-86030572D01*
%TO.N,/PC14*%
X167895625Y-94655572D02*
X159782021Y-94655572D01*
X169445625Y-93105572D02*
X167895625Y-94655572D01*
X147920625Y-92405572D02*
X146795625Y-91280572D01*
X170745625Y-94630572D02*
X171170625Y-94205572D01*
X170570625Y-94630572D02*
X170745625Y-94630572D01*
X157532021Y-92405572D02*
X147920625Y-92405572D01*
X170795625Y-93105572D02*
X169445625Y-93105572D01*
X159782021Y-94655572D02*
X157532021Y-92405572D01*
X171170625Y-93480572D02*
X170795625Y-93105572D01*
X146795625Y-91280572D02*
X146620625Y-91280572D01*
X171170625Y-94205572D02*
X171170625Y-93480572D01*
D24*
%TO.N,/PC13*%
X169595625Y-92305572D02*
X170795625Y-92305572D01*
X157745625Y-91955572D02*
X159995625Y-94205572D01*
X167695625Y-94205572D02*
X169595625Y-92305572D01*
X146645625Y-90405572D02*
X146745625Y-90405572D01*
X159995625Y-94205572D02*
X167695625Y-94205572D01*
X148295625Y-91955572D02*
X157745625Y-91955572D01*
X146745625Y-90405572D02*
X148295625Y-91955572D01*
D23*
%TO.N,/PA15*%
X132670625Y-78255572D02*
X132670625Y-80800572D01*
X141095625Y-77480572D02*
X133445625Y-77480572D01*
X132670625Y-80800572D02*
X134070625Y-82200572D01*
X133445625Y-77480572D02*
X132670625Y-78255572D01*
X153495625Y-98780572D02*
X132495625Y-98780572D01*
X145370625Y-81755572D02*
X141095625Y-77480572D01*
X145370625Y-83330572D02*
X145370625Y-81755572D01*
D24*
%TO.N,/PC15*%
X170520625Y-93805572D02*
X169395625Y-93805572D01*
X157345625Y-92855572D02*
X147320625Y-92855572D01*
X168070625Y-95130572D02*
X159620625Y-95130572D01*
X147320625Y-92855572D02*
X146570625Y-92105572D01*
X169395625Y-93805572D02*
X168070625Y-95130572D01*
X159620625Y-95130572D02*
X157345625Y-92855572D01*
%TO.N,/LED_R*%
X155245625Y-86980572D02*
X155570625Y-86980572D01*
X152420625Y-89805572D02*
X155245625Y-86980572D01*
%TO.N,/LED_B*%
X153020625Y-90355572D02*
X155745625Y-87630572D01*
X155745625Y-87630572D02*
X156170625Y-87630572D01*
%TO.N,/LED_G*%
X152220625Y-89155572D02*
X154995625Y-86380572D01*
X151745625Y-89155572D02*
X152220625Y-89155572D01*
%TD*%
%TA.AperFunction,Conductor*%
%TO.N,GND*%
G36*
X100017992Y-61010757D02*
G01*
X100063747Y-61063561D01*
X100073691Y-61132719D01*
X100044666Y-61196275D01*
X100038634Y-61202753D01*
X99948032Y-61293354D01*
X99948028Y-61293358D01*
X99827715Y-61458958D01*
X99734781Y-61641348D01*
X99671522Y-61836037D01*
X99639500Y-62038220D01*
X99639500Y-63542923D01*
X99671522Y-63745106D01*
X99734781Y-63939795D01*
X99827715Y-64122185D01*
X99948028Y-64287785D01*
X100092786Y-64432543D01*
X100247749Y-64545128D01*
X100258390Y-64552859D01*
X100374607Y-64612075D01*
X100440776Y-64645790D01*
X100440778Y-64645790D01*
X100440781Y-64645792D01*
X100545137Y-64679699D01*
X100635465Y-64709049D01*
X100736557Y-64725060D01*
X100837648Y-64741072D01*
X100837649Y-64741072D01*
X101042351Y-64741072D01*
X101042352Y-64741072D01*
X101244534Y-64709049D01*
X101439219Y-64645792D01*
X101621610Y-64552859D01*
X101714590Y-64485304D01*
X101787213Y-64432543D01*
X101787215Y-64432540D01*
X101787219Y-64432538D01*
X101931966Y-64287791D01*
X101931968Y-64287787D01*
X101931971Y-64287785D01*
X102052284Y-64122186D01*
X102052285Y-64122185D01*
X102052287Y-64122182D01*
X102135174Y-63959506D01*
X102183147Y-63908712D01*
X102250968Y-63891917D01*
X102317103Y-63914454D01*
X102333339Y-63928122D01*
X102434088Y-64028871D01*
X102434092Y-64028874D01*
X102589762Y-64132890D01*
X102589768Y-64132893D01*
X102589769Y-64132894D01*
X102762749Y-64204545D01*
X102946379Y-64241071D01*
X102946383Y-64241072D01*
X102946384Y-64241072D01*
X103133617Y-64241072D01*
X103133618Y-64241071D01*
X103317251Y-64204545D01*
X103490231Y-64132894D01*
X103645908Y-64028874D01*
X103778302Y-63896480D01*
X103882322Y-63740803D01*
X103906043Y-63683537D01*
X103925439Y-63636710D01*
X103969280Y-63582306D01*
X104035574Y-63560241D01*
X104103273Y-63577520D01*
X104150884Y-63628657D01*
X104154561Y-63636710D01*
X104197674Y-63740796D01*
X104197681Y-63740809D01*
X104301697Y-63896479D01*
X104301700Y-63896483D01*
X104434088Y-64028871D01*
X104434092Y-64028874D01*
X104589762Y-64132890D01*
X104589768Y-64132893D01*
X104589769Y-64132894D01*
X104762749Y-64204545D01*
X104946379Y-64241071D01*
X104946383Y-64241072D01*
X104946384Y-64241072D01*
X105133617Y-64241072D01*
X105133618Y-64241071D01*
X105317251Y-64204545D01*
X105490231Y-64132894D01*
X105645908Y-64028874D01*
X105778302Y-63896480D01*
X105882322Y-63740803D01*
X105953973Y-63567823D01*
X105990500Y-63384188D01*
X105990500Y-62196956D01*
X105953973Y-62013321D01*
X105882322Y-61840341D01*
X105882321Y-61840340D01*
X105882318Y-61840334D01*
X105778302Y-61684664D01*
X105778299Y-61684660D01*
X105645911Y-61552272D01*
X105645907Y-61552269D01*
X105490237Y-61448253D01*
X105490228Y-61448248D01*
X105317251Y-61376599D01*
X105317243Y-61376597D01*
X105133620Y-61340072D01*
X105133616Y-61340072D01*
X104946384Y-61340072D01*
X104946379Y-61340072D01*
X104762756Y-61376597D01*
X104762748Y-61376599D01*
X104589771Y-61448248D01*
X104589762Y-61448253D01*
X104434092Y-61552269D01*
X104434088Y-61552272D01*
X104301700Y-61684660D01*
X104301697Y-61684664D01*
X104197681Y-61840334D01*
X104197676Y-61840344D01*
X104154561Y-61944434D01*
X104110720Y-61998837D01*
X104044426Y-62020902D01*
X103976726Y-62003623D01*
X103929116Y-61952485D01*
X103925439Y-61944434D01*
X103882323Y-61840344D01*
X103882323Y-61840343D01*
X103882322Y-61840341D01*
X103882320Y-61840338D01*
X103882318Y-61840334D01*
X103778302Y-61684664D01*
X103778299Y-61684660D01*
X103645911Y-61552272D01*
X103645907Y-61552269D01*
X103490237Y-61448253D01*
X103490228Y-61448248D01*
X103317251Y-61376599D01*
X103317243Y-61376597D01*
X103133620Y-61340072D01*
X103133616Y-61340072D01*
X102946384Y-61340072D01*
X102946379Y-61340072D01*
X102762756Y-61376597D01*
X102762748Y-61376599D01*
X102589771Y-61448248D01*
X102589762Y-61448253D01*
X102434092Y-61552269D01*
X102333339Y-61653022D01*
X102272016Y-61686506D01*
X102202324Y-61681522D01*
X102146391Y-61639650D01*
X102135173Y-61621635D01*
X102105776Y-61563940D01*
X102052287Y-61458962D01*
X102052285Y-61458959D01*
X102052284Y-61458957D01*
X101931971Y-61293358D01*
X101841366Y-61202753D01*
X101807881Y-61141430D01*
X101812865Y-61071738D01*
X101854737Y-61015805D01*
X101920201Y-60991388D01*
X101929047Y-60991072D01*
X108150953Y-60991072D01*
X108217992Y-61010757D01*
X108263747Y-61063561D01*
X108273691Y-61132719D01*
X108244666Y-61196275D01*
X108238634Y-61202753D01*
X108148032Y-61293354D01*
X108148028Y-61293358D01*
X108027715Y-61458958D01*
X107934781Y-61641348D01*
X107871522Y-61836037D01*
X107839500Y-62038220D01*
X107839500Y-63542923D01*
X107871522Y-63745106D01*
X107934781Y-63939795D01*
X108027715Y-64122185D01*
X108148028Y-64287785D01*
X108292786Y-64432543D01*
X108447749Y-64545128D01*
X108458390Y-64552859D01*
X108574607Y-64612075D01*
X108640776Y-64645790D01*
X108640778Y-64645790D01*
X108640781Y-64645792D01*
X108745137Y-64679699D01*
X108835465Y-64709049D01*
X108936557Y-64725060D01*
X109037648Y-64741072D01*
X109037649Y-64741072D01*
X109242351Y-64741072D01*
X109242352Y-64741072D01*
X109444534Y-64709049D01*
X109639219Y-64645792D01*
X109821610Y-64552859D01*
X109914590Y-64485304D01*
X109987213Y-64432543D01*
X109987215Y-64432540D01*
X109987219Y-64432538D01*
X110131966Y-64287791D01*
X110131968Y-64287787D01*
X110131971Y-64287785D01*
X110187744Y-64211019D01*
X110252287Y-64122182D01*
X110345220Y-63939791D01*
X110408477Y-63745106D01*
X110440500Y-63542924D01*
X110440500Y-62038220D01*
X110431838Y-61983530D01*
X110408477Y-61836037D01*
X110379127Y-61745709D01*
X110345220Y-61641353D01*
X110345218Y-61641350D01*
X110345218Y-61641348D01*
X110305776Y-61563940D01*
X110252287Y-61458962D01*
X110232807Y-61432150D01*
X110131971Y-61293358D01*
X110041366Y-61202753D01*
X110007881Y-61141430D01*
X110012865Y-61071738D01*
X110054737Y-61015805D01*
X110120201Y-60991388D01*
X110129047Y-60991072D01*
X112014200Y-60991072D01*
X112078430Y-61009003D01*
X116866996Y-63908712D01*
X128366178Y-70872024D01*
X128380189Y-70880508D01*
X128391448Y-70888203D01*
X128395183Y-70891069D01*
X128395186Y-70891072D01*
X128421648Y-70906350D01*
X128446604Y-70920758D01*
X128448833Y-70922076D01*
X128471511Y-70935808D01*
X128499614Y-70952826D01*
X128499617Y-70952827D01*
X128503903Y-70954708D01*
X128504174Y-70954845D01*
X128504695Y-70955067D01*
X128504958Y-70955160D01*
X128509313Y-70956964D01*
X128517483Y-70959153D01*
X128566707Y-70972342D01*
X128569135Y-70973020D01*
X128626167Y-70989587D01*
X128626174Y-70989587D01*
X128630795Y-70990294D01*
X128631091Y-70990356D01*
X128631661Y-70990437D01*
X128631959Y-70990460D01*
X128636605Y-70991072D01*
X128636608Y-70991072D01*
X128695966Y-70991072D01*
X128698555Y-70991098D01*
X128757922Y-70992339D01*
X128762605Y-70991822D01*
X128776221Y-70991072D01*
X178603769Y-70991072D01*
X178617371Y-70991820D01*
X178622110Y-70992342D01*
X178622117Y-70992344D01*
X178680871Y-70991111D01*
X178681486Y-70991099D01*
X178684085Y-70991072D01*
X178743389Y-70991072D01*
X178743392Y-70991072D01*
X178743394Y-70991071D01*
X178748088Y-70990453D01*
X178748396Y-70990429D01*
X178748891Y-70990359D01*
X178749177Y-70990299D01*
X178753862Y-70989581D01*
X178753872Y-70989581D01*
X178810942Y-70972997D01*
X178813295Y-70972340D01*
X178870686Y-70956964D01*
X178870691Y-70956960D01*
X178875085Y-70955142D01*
X178875355Y-70955047D01*
X178875797Y-70954858D01*
X178876070Y-70954720D01*
X178880410Y-70952814D01*
X178880422Y-70952811D01*
X178931281Y-70922006D01*
X178933321Y-70920799D01*
X178984814Y-70891072D01*
X178984822Y-70891063D01*
X178988586Y-70888176D01*
X178999834Y-70880487D01*
X193495023Y-62101403D01*
X195298682Y-61009008D01*
X195362920Y-60991072D01*
X245185292Y-60991072D01*
X245191783Y-60991242D01*
X245495601Y-61007167D01*
X245508475Y-61008521D01*
X245805761Y-61055610D01*
X245818437Y-61058304D01*
X246109160Y-61136207D01*
X246121475Y-61140208D01*
X246402478Y-61248077D01*
X246414327Y-61253353D01*
X246682503Y-61389998D01*
X246693716Y-61396472D01*
X246946142Y-61560401D01*
X246956637Y-61568026D01*
X247190536Y-61757435D01*
X247200181Y-61766120D01*
X247412993Y-61978933D01*
X247421678Y-61988579D01*
X247611078Y-62222470D01*
X247618707Y-62232970D01*
X247782628Y-62485386D01*
X247789110Y-62496613D01*
X247827489Y-62571934D01*
X247925752Y-62764786D01*
X247931031Y-62776643D01*
X248038887Y-63057615D01*
X248042898Y-63069959D01*
X248120797Y-63360676D01*
X248123495Y-63373372D01*
X248170576Y-63670622D01*
X248171933Y-63683529D01*
X248187877Y-63987703D01*
X248188047Y-63994194D01*
X248188047Y-88987273D01*
X248187877Y-88993772D01*
X248171933Y-89297576D01*
X248170575Y-89310483D01*
X248123475Y-89607734D01*
X248120776Y-89620428D01*
X248042865Y-89911135D01*
X248038854Y-89923477D01*
X247930989Y-90204440D01*
X247925710Y-90216296D01*
X247789066Y-90484454D01*
X247782577Y-90495694D01*
X247618650Y-90748107D01*
X247611021Y-90758606D01*
X247421616Y-90992494D01*
X247412932Y-91002138D01*
X247200124Y-91214945D01*
X247190479Y-91223630D01*
X246956582Y-91413037D01*
X246946083Y-91420665D01*
X246693676Y-91584586D01*
X246682437Y-91591075D01*
X246414280Y-91727717D01*
X246402424Y-91732996D01*
X246121455Y-91840862D01*
X246109112Y-91844873D01*
X245818409Y-91922781D01*
X245805715Y-91925480D01*
X245508463Y-91972577D01*
X245495556Y-91973935D01*
X245415062Y-91978159D01*
X245191262Y-91989902D01*
X245184790Y-91990072D01*
X225216155Y-91990072D01*
X225205215Y-91989588D01*
X225167072Y-91986209D01*
X225167062Y-91986210D01*
X225155645Y-91988211D01*
X225134242Y-91990072D01*
X225122653Y-91990072D01*
X225085666Y-91999982D01*
X225074983Y-92002344D01*
X225037258Y-92008955D01*
X225026743Y-92013845D01*
X225006565Y-92021177D01*
X225004284Y-92021788D01*
X224995355Y-92024181D01*
X224962198Y-92043325D01*
X224952488Y-92048374D01*
X224917760Y-92064523D01*
X224908870Y-92071967D01*
X224891277Y-92084272D01*
X224881235Y-92090070D01*
X224881229Y-92090074D01*
X224854145Y-92117157D01*
X224846072Y-92124546D01*
X203547400Y-109957630D01*
X203483362Y-109985575D01*
X203467924Y-109986556D01*
X189199924Y-110001322D01*
X189134715Y-110001322D01*
X189134551Y-110001344D01*
X189134224Y-110001387D01*
X189071127Y-110018363D01*
X189070488Y-110018535D01*
X189028064Y-110029903D01*
X189007430Y-110035432D01*
X189007408Y-110035442D01*
X189007097Y-110035571D01*
X189006960Y-110035627D01*
X188949967Y-110068610D01*
X188949890Y-110068654D01*
X188893311Y-110101322D01*
X188893309Y-110101323D01*
X188893293Y-110101333D01*
X188893208Y-110101399D01*
X188892904Y-110101632D01*
X188846682Y-110147950D01*
X188800118Y-110194514D01*
X188800095Y-110194545D01*
X188799926Y-110194765D01*
X188799811Y-110194914D01*
X188767078Y-110251744D01*
X188767016Y-110251853D01*
X188734222Y-110308654D01*
X188734037Y-110309101D01*
X188717069Y-110372687D01*
X188717037Y-110372807D01*
X188700123Y-110435932D01*
X188700115Y-110435996D01*
X188700057Y-110436434D01*
X188700125Y-110502341D01*
X188700125Y-111418125D01*
X188680440Y-111485164D01*
X188627636Y-111530919D01*
X188575634Y-111542124D01*
X183824634Y-111523310D01*
X183757673Y-111503360D01*
X183712128Y-111450375D01*
X183701125Y-111399311D01*
X183701125Y-110435932D01*
X183701125Y-110435930D01*
X183667017Y-110308636D01*
X183601125Y-110194508D01*
X183507939Y-110101322D01*
X183450787Y-110068325D01*
X183393812Y-110035430D01*
X183330115Y-110018363D01*
X183266517Y-110001322D01*
X124366517Y-110001322D01*
X124234733Y-110001322D01*
X124107437Y-110035430D01*
X123993311Y-110101322D01*
X123993308Y-110101324D01*
X123900127Y-110194505D01*
X123900125Y-110194508D01*
X123834233Y-110308634D01*
X123800125Y-110435930D01*
X123800125Y-111161096D01*
X123780440Y-111228135D01*
X123727636Y-111273890D01*
X123675634Y-111285095D01*
X118924634Y-111266280D01*
X118857673Y-111246330D01*
X118812128Y-111193345D01*
X118801125Y-111142281D01*
X118801125Y-110502337D01*
X118801125Y-110502269D01*
X118801193Y-110436444D01*
X118801191Y-110436436D01*
X118801126Y-110435936D01*
X118801125Y-110435932D01*
X118801125Y-110435930D01*
X118784195Y-110372747D01*
X118767215Y-110309115D01*
X118767211Y-110309108D01*
X118767013Y-110308627D01*
X118734361Y-110252074D01*
X118734296Y-110251962D01*
X118734233Y-110251853D01*
X118701441Y-110194919D01*
X118701440Y-110194918D01*
X118701436Y-110194911D01*
X118701410Y-110194877D01*
X118701134Y-110194516D01*
X118654985Y-110148368D01*
X118654921Y-110148252D01*
X118654896Y-110148278D01*
X118608350Y-110101638D01*
X118607992Y-110101363D01*
X118607939Y-110101322D01*
X118550897Y-110068389D01*
X118494290Y-110035629D01*
X118494289Y-110035628D01*
X118494283Y-110035625D01*
X118494235Y-110035605D01*
X118493819Y-110035432D01*
X118430239Y-110018396D01*
X118391747Y-110008040D01*
X118367017Y-110001386D01*
X118366899Y-110001371D01*
X118366527Y-110001322D01*
X118366517Y-110001322D01*
X118300817Y-110001322D01*
X103921969Y-109986555D01*
X103854949Y-109966802D01*
X103842524Y-109957656D01*
X100075618Y-106805570D01*
X104265015Y-106805570D01*
X104265015Y-106805573D01*
X104285429Y-107091005D01*
X104346253Y-107370609D01*
X104446260Y-107638738D01*
X104583395Y-107889881D01*
X104583400Y-107889889D01*
X104754879Y-108118959D01*
X104754895Y-108118977D01*
X104957219Y-108321301D01*
X104957237Y-108321317D01*
X105186307Y-108492796D01*
X105186315Y-108492801D01*
X105437458Y-108629936D01*
X105437457Y-108629936D01*
X105437461Y-108629937D01*
X105437464Y-108629939D01*
X105705579Y-108729941D01*
X105705585Y-108729942D01*
X105705587Y-108729943D01*
X105985191Y-108790767D01*
X105985193Y-108790767D01*
X105985197Y-108790768D01*
X106238845Y-108808909D01*
X106270624Y-108811182D01*
X106270625Y-108811182D01*
X106270626Y-108811182D01*
X106299220Y-108809136D01*
X106556053Y-108790768D01*
X106835671Y-108729941D01*
X107103786Y-108629939D01*
X107354940Y-108492798D01*
X107584020Y-108321311D01*
X107786364Y-108118967D01*
X107957851Y-107889887D01*
X108094992Y-107638733D01*
X108194994Y-107370618D01*
X108255821Y-107091000D01*
X108276235Y-106805572D01*
X108276235Y-106805570D01*
X119265015Y-106805570D01*
X119265015Y-106805573D01*
X119285429Y-107091005D01*
X119346253Y-107370609D01*
X119446260Y-107638738D01*
X119583395Y-107889881D01*
X119583400Y-107889889D01*
X119754879Y-108118959D01*
X119754895Y-108118977D01*
X119957219Y-108321301D01*
X119957237Y-108321317D01*
X120186307Y-108492796D01*
X120186315Y-108492801D01*
X120437458Y-108629936D01*
X120437457Y-108629936D01*
X120437461Y-108629937D01*
X120437464Y-108629939D01*
X120705579Y-108729941D01*
X120705585Y-108729942D01*
X120705587Y-108729943D01*
X120985191Y-108790767D01*
X120985193Y-108790767D01*
X120985197Y-108790768D01*
X121238845Y-108808909D01*
X121270624Y-108811182D01*
X121270625Y-108811182D01*
X121270626Y-108811182D01*
X121299220Y-108809136D01*
X121556053Y-108790768D01*
X121835671Y-108729941D01*
X122103786Y-108629939D01*
X122354940Y-108492798D01*
X122584020Y-108321311D01*
X122786364Y-108118967D01*
X122957851Y-107889887D01*
X123094992Y-107638733D01*
X123194994Y-107370618D01*
X123255821Y-107091000D01*
X123276235Y-106805572D01*
X123276235Y-106805570D01*
X184265015Y-106805570D01*
X184265015Y-106805573D01*
X184285429Y-107091005D01*
X184346253Y-107370609D01*
X184446260Y-107638738D01*
X184583395Y-107889881D01*
X184583400Y-107889889D01*
X184754879Y-108118959D01*
X184754895Y-108118977D01*
X184957219Y-108321301D01*
X184957237Y-108321317D01*
X185186307Y-108492796D01*
X185186315Y-108492801D01*
X185437458Y-108629936D01*
X185437457Y-108629936D01*
X185437461Y-108629937D01*
X185437464Y-108629939D01*
X185705579Y-108729941D01*
X185705585Y-108729942D01*
X185705587Y-108729943D01*
X185985191Y-108790767D01*
X185985193Y-108790767D01*
X185985197Y-108790768D01*
X186238845Y-108808909D01*
X186270624Y-108811182D01*
X186270625Y-108811182D01*
X186270626Y-108811182D01*
X186299220Y-108809136D01*
X186556053Y-108790768D01*
X186835671Y-108729941D01*
X187103786Y-108629939D01*
X187354940Y-108492798D01*
X187584020Y-108321311D01*
X187786364Y-108118967D01*
X187957851Y-107889887D01*
X188094992Y-107638733D01*
X188194994Y-107370618D01*
X188255821Y-107091000D01*
X188276235Y-106805572D01*
X188276235Y-106805570D01*
X199265015Y-106805570D01*
X199265015Y-106805573D01*
X199285429Y-107091005D01*
X199346253Y-107370609D01*
X199446260Y-107638738D01*
X199583395Y-107889881D01*
X199583400Y-107889889D01*
X199754879Y-108118959D01*
X199754895Y-108118977D01*
X199957219Y-108321301D01*
X199957237Y-108321317D01*
X200186307Y-108492796D01*
X200186315Y-108492801D01*
X200437458Y-108629936D01*
X200437457Y-108629936D01*
X200437461Y-108629937D01*
X200437464Y-108629939D01*
X200705579Y-108729941D01*
X200705585Y-108729942D01*
X200705587Y-108729943D01*
X200985191Y-108790767D01*
X200985193Y-108790767D01*
X200985197Y-108790768D01*
X201238845Y-108808909D01*
X201270624Y-108811182D01*
X201270625Y-108811182D01*
X201270626Y-108811182D01*
X201299220Y-108809136D01*
X201556053Y-108790768D01*
X201835671Y-108729941D01*
X202103786Y-108629939D01*
X202354940Y-108492798D01*
X202584020Y-108321311D01*
X202786364Y-108118967D01*
X202957851Y-107889887D01*
X203094992Y-107638733D01*
X203194994Y-107370618D01*
X203255821Y-107091000D01*
X203276235Y-106805572D01*
X203255821Y-106520144D01*
X203194994Y-106240526D01*
X203094992Y-105972411D01*
X203014650Y-105825277D01*
X202957854Y-105721262D01*
X202957849Y-105721254D01*
X202786370Y-105492184D01*
X202786354Y-105492166D01*
X202584030Y-105289842D01*
X202584012Y-105289826D01*
X202354942Y-105118347D01*
X202354934Y-105118342D01*
X202103791Y-104981207D01*
X202103792Y-104981207D01*
X201996540Y-104941204D01*
X201835671Y-104881203D01*
X201835668Y-104881202D01*
X201835662Y-104881200D01*
X201556058Y-104820376D01*
X201270626Y-104799962D01*
X201270624Y-104799962D01*
X200985191Y-104820376D01*
X200705587Y-104881200D01*
X200437458Y-104981207D01*
X200186315Y-105118342D01*
X200186307Y-105118347D01*
X199957237Y-105289826D01*
X199957219Y-105289842D01*
X199754895Y-105492166D01*
X199754879Y-105492184D01*
X199583400Y-105721254D01*
X199583395Y-105721262D01*
X199446260Y-105972405D01*
X199346253Y-106240534D01*
X199285429Y-106520138D01*
X199265015Y-106805570D01*
X188276235Y-106805570D01*
X188255821Y-106520144D01*
X188194994Y-106240526D01*
X188094992Y-105972411D01*
X188014650Y-105825277D01*
X187957854Y-105721262D01*
X187957849Y-105721254D01*
X187786370Y-105492184D01*
X187786354Y-105492166D01*
X187584030Y-105289842D01*
X187584012Y-105289826D01*
X187354942Y-105118347D01*
X187354934Y-105118342D01*
X187103791Y-104981207D01*
X187103792Y-104981207D01*
X186996540Y-104941204D01*
X186835671Y-104881203D01*
X186835668Y-104881202D01*
X186835662Y-104881200D01*
X186556058Y-104820376D01*
X186270626Y-104799962D01*
X186270624Y-104799962D01*
X185985191Y-104820376D01*
X185705587Y-104881200D01*
X185437458Y-104981207D01*
X185186315Y-105118342D01*
X185186307Y-105118347D01*
X184957237Y-105289826D01*
X184957219Y-105289842D01*
X184754895Y-105492166D01*
X184754879Y-105492184D01*
X184583400Y-105721254D01*
X184583395Y-105721262D01*
X184446260Y-105972405D01*
X184346253Y-106240534D01*
X184285429Y-106520138D01*
X184265015Y-106805570D01*
X123276235Y-106805570D01*
X123255821Y-106520144D01*
X123194994Y-106240526D01*
X123094992Y-105972411D01*
X123014650Y-105825277D01*
X122957854Y-105721262D01*
X122957849Y-105721254D01*
X122786370Y-105492184D01*
X122786354Y-105492166D01*
X122584030Y-105289842D01*
X122584012Y-105289826D01*
X122354942Y-105118347D01*
X122354934Y-105118342D01*
X122103791Y-104981207D01*
X122103792Y-104981207D01*
X121996540Y-104941204D01*
X121835671Y-104881203D01*
X121835668Y-104881202D01*
X121835662Y-104881200D01*
X121556058Y-104820376D01*
X121270626Y-104799962D01*
X121270624Y-104799962D01*
X120985191Y-104820376D01*
X120705587Y-104881200D01*
X120437458Y-104981207D01*
X120186315Y-105118342D01*
X120186307Y-105118347D01*
X119957237Y-105289826D01*
X119957219Y-105289842D01*
X119754895Y-105492166D01*
X119754879Y-105492184D01*
X119583400Y-105721254D01*
X119583395Y-105721262D01*
X119446260Y-105972405D01*
X119346253Y-106240534D01*
X119285429Y-106520138D01*
X119265015Y-106805570D01*
X108276235Y-106805570D01*
X108255821Y-106520144D01*
X108194994Y-106240526D01*
X108094992Y-105972411D01*
X108014650Y-105825277D01*
X107957854Y-105721262D01*
X107957849Y-105721254D01*
X107786370Y-105492184D01*
X107786354Y-105492166D01*
X107584030Y-105289842D01*
X107584012Y-105289826D01*
X107354942Y-105118347D01*
X107354934Y-105118342D01*
X107103791Y-104981207D01*
X107103792Y-104981207D01*
X106996540Y-104941204D01*
X106835671Y-104881203D01*
X106835668Y-104881202D01*
X106835662Y-104881200D01*
X106556058Y-104820376D01*
X106270626Y-104799962D01*
X106270624Y-104799962D01*
X105985191Y-104820376D01*
X105705587Y-104881200D01*
X105437458Y-104981207D01*
X105186315Y-105118342D01*
X105186307Y-105118347D01*
X104957237Y-105289826D01*
X104957219Y-105289842D01*
X104754895Y-105492166D01*
X104754879Y-105492184D01*
X104583400Y-105721254D01*
X104583395Y-105721262D01*
X104446260Y-105972405D01*
X104346253Y-106240534D01*
X104285429Y-106520138D01*
X104265015Y-106805570D01*
X100075618Y-106805570D01*
X89648792Y-98080572D01*
X123939978Y-98080572D01*
X123960459Y-98223025D01*
X123960459Y-98223026D01*
X123960459Y-98223027D01*
X123960460Y-98223029D01*
X123983919Y-98274397D01*
X123995125Y-98325907D01*
X123995125Y-98824565D01*
X123995125Y-98824567D01*
X123995124Y-98824567D01*
X124022043Y-98959894D01*
X124022046Y-98959904D01*
X124074846Y-99087376D01*
X124074853Y-99087389D01*
X124151510Y-99202113D01*
X124151513Y-99202117D01*
X124249079Y-99299683D01*
X124249083Y-99299686D01*
X124363807Y-99376343D01*
X124363820Y-99376350D01*
X124491292Y-99429150D01*
X124491297Y-99429152D01*
X124491301Y-99429152D01*
X124491302Y-99429153D01*
X124626629Y-99456072D01*
X124626632Y-99456072D01*
X124764620Y-99456072D01*
X124855666Y-99437961D01*
X124899953Y-99429152D01*
X125027436Y-99376347D01*
X125027441Y-99376343D01*
X125027444Y-99376342D01*
X125064977Y-99351262D01*
X125107337Y-99322958D01*
X125174013Y-99302080D01*
X125223682Y-99311500D01*
X125266291Y-99329150D01*
X125266294Y-99329150D01*
X125266297Y-99329152D01*
X125266301Y-99329152D01*
X125266302Y-99329153D01*
X125401629Y-99356072D01*
X125401632Y-99356072D01*
X125679106Y-99356072D01*
X125746145Y-99375757D01*
X125766787Y-99392391D01*
X129851511Y-103477114D01*
X129949080Y-103574683D01*
X129949084Y-103574687D01*
X130063807Y-103651343D01*
X130063811Y-103651345D01*
X130063814Y-103651347D01*
X130138491Y-103682279D01*
X130138492Y-103682279D01*
X130138494Y-103682281D01*
X130191291Y-103704150D01*
X130191296Y-103704152D01*
X130191305Y-103704153D01*
X130191306Y-103704154D01*
X130218170Y-103709497D01*
X130218176Y-103709498D01*
X130218216Y-103709506D01*
X130308562Y-103727477D01*
X130326631Y-103731072D01*
X130326632Y-103731072D01*
X155614620Y-103731072D01*
X155705666Y-103712961D01*
X155749953Y-103704152D01*
X155877436Y-103651347D01*
X155992167Y-103574686D01*
X156089739Y-103477114D01*
X156166400Y-103362383D01*
X156219205Y-103234900D01*
X156246125Y-103099565D01*
X156246125Y-102961579D01*
X156246125Y-102961576D01*
X156219206Y-102826249D01*
X156219205Y-102826248D01*
X156219205Y-102826244D01*
X156219203Y-102826239D01*
X156166403Y-102698767D01*
X156166396Y-102698754D01*
X156089739Y-102584030D01*
X156089736Y-102584026D01*
X155992170Y-102486460D01*
X155992166Y-102486457D01*
X155877442Y-102409800D01*
X155877429Y-102409793D01*
X155749957Y-102356993D01*
X155749947Y-102356990D01*
X155614620Y-102330072D01*
X155614618Y-102330072D01*
X130737143Y-102330072D01*
X130670104Y-102310387D01*
X130649462Y-102293753D01*
X127136282Y-98780572D01*
X131989978Y-98780572D01*
X132010459Y-98923028D01*
X132027300Y-98959904D01*
X132070248Y-99053945D01*
X132164497Y-99162715D01*
X132285572Y-99240525D01*
X132285575Y-99240526D01*
X132285574Y-99240526D01*
X132423661Y-99281071D01*
X132423663Y-99281072D01*
X132423664Y-99281072D01*
X132567587Y-99281072D01*
X132567587Y-99281071D01*
X132705678Y-99240525D01*
X132826753Y-99162715D01*
X132826761Y-99162705D01*
X132828313Y-99161362D01*
X132830197Y-99160501D01*
X132834214Y-99157920D01*
X132834585Y-99158497D01*
X132891868Y-99132335D01*
X132909520Y-99131072D01*
X153081730Y-99131072D01*
X153148769Y-99150757D01*
X153162937Y-99161362D01*
X153164491Y-99162709D01*
X153164497Y-99162715D01*
X153285572Y-99240525D01*
X153285575Y-99240526D01*
X153285574Y-99240526D01*
X153423661Y-99281071D01*
X153423663Y-99281072D01*
X153423664Y-99281072D01*
X153567587Y-99281072D01*
X153567587Y-99281071D01*
X153705678Y-99240525D01*
X153826753Y-99162715D01*
X153921002Y-99053945D01*
X153980790Y-98923029D01*
X154001272Y-98780572D01*
X153980790Y-98638115D01*
X153921002Y-98507199D01*
X153826753Y-98398429D01*
X153705678Y-98320619D01*
X153705676Y-98320618D01*
X153705674Y-98320617D01*
X153705675Y-98320617D01*
X153567588Y-98280072D01*
X153567586Y-98280072D01*
X153423664Y-98280072D01*
X153423661Y-98280072D01*
X153285574Y-98320617D01*
X153164501Y-98398426D01*
X153164499Y-98398427D01*
X153164497Y-98398429D01*
X153164495Y-98398430D01*
X153162937Y-98399782D01*
X153161052Y-98400642D01*
X153157036Y-98403224D01*
X153156664Y-98402646D01*
X153099382Y-98428809D01*
X153081730Y-98430072D01*
X132909520Y-98430072D01*
X132842481Y-98410387D01*
X132828313Y-98399782D01*
X132826757Y-98398434D01*
X132826753Y-98398429D01*
X132705678Y-98320619D01*
X132705676Y-98320618D01*
X132705674Y-98320617D01*
X132705675Y-98320617D01*
X132567588Y-98280072D01*
X132567586Y-98280072D01*
X132423664Y-98280072D01*
X132423661Y-98280072D01*
X132285574Y-98320617D01*
X132164498Y-98398428D01*
X132164497Y-98398428D01*
X132164497Y-98398429D01*
X132160843Y-98402646D01*
X132070248Y-98507198D01*
X132070247Y-98507200D01*
X132010459Y-98638115D01*
X131989978Y-98780572D01*
X127136282Y-98780572D01*
X126541180Y-98185470D01*
X126507695Y-98124147D01*
X126506122Y-98115427D01*
X126505790Y-98113117D01*
X126505790Y-98113115D01*
X126490928Y-98080572D01*
X126446004Y-97982202D01*
X126445999Y-97982194D01*
X126351412Y-97873034D01*
X126322387Y-97809478D01*
X126321125Y-97791832D01*
X126321125Y-97661576D01*
X126294206Y-97526249D01*
X126294205Y-97526248D01*
X126294205Y-97526244D01*
X126262111Y-97448761D01*
X126241403Y-97398767D01*
X126241396Y-97398754D01*
X126164739Y-97284030D01*
X126164736Y-97284026D01*
X126067170Y-97186460D01*
X126067166Y-97186457D01*
X125952442Y-97109800D01*
X125952429Y-97109793D01*
X125824957Y-97056993D01*
X125824947Y-97056990D01*
X125689620Y-97030072D01*
X125689618Y-97030072D01*
X125432641Y-97030072D01*
X125365602Y-97010387D01*
X125363751Y-97009174D01*
X125252438Y-96934797D01*
X125252434Y-96934795D01*
X125124957Y-96881993D01*
X125124947Y-96881990D01*
X124989621Y-96855072D01*
X124989619Y-96855072D01*
X124851631Y-96855072D01*
X124851629Y-96855072D01*
X124716302Y-96881990D01*
X124716292Y-96881993D01*
X124588817Y-96934794D01*
X124474079Y-97011459D01*
X124151512Y-97334026D01*
X124074847Y-97448764D01*
X124022046Y-97576239D01*
X124022043Y-97576251D01*
X123998438Y-97694920D01*
X123998438Y-97694926D01*
X123995125Y-97711579D01*
X123995125Y-97711582D01*
X123995125Y-97835235D01*
X123983919Y-97886746D01*
X123960460Y-97938113D01*
X123960459Y-97938114D01*
X123939978Y-98080572D01*
X89648792Y-98080572D01*
X83295935Y-92764605D01*
X82530981Y-92124504D01*
X82522876Y-92117087D01*
X82495863Y-92090074D01*
X82495861Y-92090072D01*
X82495236Y-92089711D01*
X82485740Y-92084228D01*
X82468167Y-92071942D01*
X82459209Y-92064446D01*
X82459207Y-92064445D01*
X82459206Y-92064444D01*
X82424556Y-92048343D01*
X82414826Y-92043285D01*
X82384106Y-92025550D01*
X82381733Y-92024180D01*
X82381732Y-92024179D01*
X82370441Y-92021153D01*
X82350295Y-92013835D01*
X82339702Y-92008913D01*
X82339691Y-92008910D01*
X82302058Y-92002327D01*
X82291332Y-91999957D01*
X82254441Y-91990072D01*
X82254439Y-91990072D01*
X82242756Y-91990072D01*
X82221390Y-91988217D01*
X82218694Y-91987745D01*
X82209879Y-91986203D01*
X82175076Y-91989296D01*
X82171829Y-91989585D01*
X82160855Y-91990072D01*
X62262042Y-91990072D01*
X62262026Y-91990071D01*
X62191782Y-91990071D01*
X62185294Y-91989901D01*
X61881500Y-91973984D01*
X61868591Y-91972628D01*
X61571318Y-91925548D01*
X61558623Y-91922849D01*
X61331747Y-91862060D01*
X61267912Y-91844957D01*
X61255574Y-91840948D01*
X61062030Y-91766655D01*
X60974592Y-91733091D01*
X60962735Y-91727812D01*
X60694576Y-91591181D01*
X60683335Y-91584691D01*
X60430907Y-91420764D01*
X60420407Y-91413135D01*
X60186520Y-91223739D01*
X60176874Y-91215054D01*
X59964059Y-91002240D01*
X59955374Y-90992595D01*
X59938202Y-90971390D01*
X59765964Y-90758694D01*
X59758335Y-90748193D01*
X59594422Y-90495788D01*
X59587932Y-90484548D01*
X59475106Y-90263115D01*
X59451290Y-90216373D01*
X59446012Y-90204517D01*
X59338156Y-89923540D01*
X59334147Y-89911201D01*
X59256247Y-89620472D01*
X59253554Y-89607796D01*
X59206473Y-89310531D01*
X59205117Y-89297625D01*
X59205114Y-89297576D01*
X59191568Y-89039058D01*
X60213011Y-89039058D01*
X60213047Y-89039605D01*
X60213047Y-89102410D01*
X60241652Y-89310533D01*
X60250312Y-89373536D01*
X60250313Y-89373542D01*
X60324149Y-89637065D01*
X60433180Y-89888081D01*
X60575376Y-90121913D01*
X60748089Y-90334206D01*
X60748092Y-90334208D01*
X60748093Y-90334210D01*
X60881434Y-90458742D01*
X60948107Y-90521011D01*
X61171682Y-90678827D01*
X61171688Y-90678831D01*
X61171690Y-90678832D01*
X61414683Y-90804741D01*
X61445026Y-90815525D01*
X61672551Y-90896388D01*
X61672567Y-90896393D01*
X61862802Y-90935923D01*
X61940507Y-90952070D01*
X61940508Y-90952071D01*
X61957988Y-90953266D01*
X62213547Y-90970747D01*
X62486585Y-90952071D01*
X62607167Y-90927013D01*
X62754526Y-90896393D01*
X62754532Y-90896390D01*
X62754537Y-90896390D01*
X63012411Y-90804741D01*
X63255404Y-90678832D01*
X63478989Y-90521009D01*
X63679001Y-90334210D01*
X63851715Y-90121917D01*
X63993912Y-89888083D01*
X63996537Y-89882041D01*
X64091629Y-89663115D01*
X64102945Y-89637064D01*
X64176782Y-89373537D01*
X64214047Y-89102410D01*
X64214047Y-88965572D01*
X64216915Y-83039880D01*
X64216952Y-83039354D01*
X64216952Y-82965571D01*
X64216958Y-82952408D01*
X64216984Y-82899922D01*
X64216983Y-82899919D01*
X64216987Y-82892152D01*
X64216952Y-82891601D01*
X64216952Y-82828732D01*
X64201331Y-82715082D01*
X64179687Y-82557607D01*
X64105850Y-82294080D01*
X64029394Y-82118061D01*
X63996818Y-82043062D01*
X63854622Y-81809230D01*
X63844361Y-81796618D01*
X63771602Y-81707185D01*
X63681909Y-81596937D01*
X63481891Y-81410132D01*
X63258316Y-81252316D01*
X63258310Y-81252312D01*
X63015312Y-81126401D01*
X62757447Y-81034755D01*
X62757431Y-81034750D01*
X62489492Y-80979073D01*
X62489490Y-80979072D01*
X62216452Y-80960397D01*
X61943413Y-80979072D01*
X61943411Y-80979073D01*
X61675472Y-81034750D01*
X61675456Y-81034755D01*
X61417591Y-81126401D01*
X61174593Y-81252312D01*
X61174587Y-81252316D01*
X60951012Y-81410132D01*
X60750994Y-81596937D01*
X60578281Y-81809230D01*
X60436085Y-82043062D01*
X60327054Y-82294078D01*
X60253218Y-82557601D01*
X60253217Y-82557607D01*
X60221685Y-82787025D01*
X60215952Y-82828734D01*
X60215952Y-82965525D01*
X60215951Y-82967152D01*
X60213081Y-88891556D01*
X60213047Y-88892101D01*
X60213047Y-88965193D01*
X60213011Y-89039058D01*
X59191568Y-89039058D01*
X59189216Y-88994181D01*
X59189047Y-88987692D01*
X59189047Y-88965133D01*
X59189048Y-88924684D01*
X59189047Y-88924680D01*
X59189047Y-75077844D01*
X87213047Y-75077844D01*
X87213047Y-75903299D01*
X87227860Y-76015807D01*
X87227860Y-76015808D01*
X87274728Y-76128958D01*
X87285849Y-76155805D01*
X87378096Y-76276023D01*
X87498314Y-76368270D01*
X87498317Y-76368271D01*
X87498318Y-76368272D01*
X87589856Y-76406188D01*
X87644260Y-76450028D01*
X87666325Y-76516322D01*
X87649046Y-76584022D01*
X87597909Y-76631633D01*
X87589858Y-76635310D01*
X87523316Y-76662873D01*
X87523314Y-76662874D01*
X87403096Y-76755121D01*
X87345968Y-76829572D01*
X87310847Y-76875342D01*
X87252860Y-77015335D01*
X87252860Y-77015336D01*
X87238047Y-77127844D01*
X87238047Y-77953299D01*
X87252860Y-78065807D01*
X87252860Y-78065808D01*
X87275423Y-78120281D01*
X87310849Y-78205805D01*
X87403096Y-78326023D01*
X87523314Y-78418270D01*
X87663311Y-78476259D01*
X87775827Y-78491072D01*
X87775834Y-78491072D01*
X89601260Y-78491072D01*
X89601267Y-78491072D01*
X89713783Y-78476259D01*
X89853780Y-78418270D01*
X89973998Y-78326023D01*
X90066245Y-78205805D01*
X90124234Y-78065808D01*
X90133044Y-77998886D01*
X90161310Y-77934990D01*
X90219635Y-77896519D01*
X90255983Y-77891072D01*
X91834081Y-77891072D01*
X91901120Y-77910757D01*
X91921762Y-77927391D01*
X101049086Y-87054714D01*
X110065156Y-96070784D01*
X110130413Y-96136041D01*
X110130416Y-96136042D01*
X110130419Y-96136045D01*
X110210331Y-96182183D01*
X110210332Y-96182183D01*
X110210337Y-96182186D01*
X110299481Y-96206072D01*
X153781730Y-96206072D01*
X153848769Y-96225757D01*
X153862937Y-96236362D01*
X153864491Y-96237709D01*
X153864497Y-96237715D01*
X153985572Y-96315525D01*
X153985575Y-96315526D01*
X153985574Y-96315526D01*
X154123661Y-96356071D01*
X154123663Y-96356072D01*
X154123664Y-96356072D01*
X154267587Y-96356072D01*
X154267587Y-96356071D01*
X154405675Y-96315526D01*
X154405676Y-96315526D01*
X154441085Y-96292770D01*
X154508124Y-96273085D01*
X154575162Y-96292768D01*
X154575165Y-96292770D01*
X154610573Y-96315526D01*
X154748661Y-96356071D01*
X154748663Y-96356072D01*
X154748664Y-96356072D01*
X154892587Y-96356072D01*
X154892587Y-96356071D01*
X155030675Y-96315526D01*
X155030676Y-96315526D01*
X155066085Y-96292770D01*
X155133124Y-96273085D01*
X155200162Y-96292768D01*
X155200165Y-96292770D01*
X155235573Y-96315526D01*
X155373661Y-96356071D01*
X155373663Y-96356072D01*
X155373664Y-96356072D01*
X155517587Y-96356072D01*
X155517587Y-96356071D01*
X155655678Y-96315525D01*
X155776753Y-96237715D01*
X155871002Y-96128945D01*
X155930790Y-95998029D01*
X155951272Y-95855572D01*
X155930790Y-95713115D01*
X155871002Y-95582199D01*
X155787115Y-95485387D01*
X155775816Y-95472347D01*
X155746792Y-95408791D01*
X155756736Y-95339633D01*
X155775813Y-95309947D01*
X155846002Y-95228945D01*
X155905790Y-95098029D01*
X155926272Y-94955572D01*
X155905790Y-94813115D01*
X155846002Y-94682199D01*
X155827870Y-94661274D01*
X155798846Y-94597719D01*
X155808790Y-94528561D01*
X155854544Y-94475757D01*
X155921584Y-94456072D01*
X156729106Y-94456072D01*
X156796145Y-94475757D01*
X156816787Y-94492391D01*
X158701511Y-96377114D01*
X158799081Y-96474684D01*
X158799084Y-96474687D01*
X158913807Y-96551343D01*
X158913811Y-96551345D01*
X158913814Y-96551347D01*
X158988491Y-96582279D01*
X158988492Y-96582279D01*
X158988494Y-96582281D01*
X159041291Y-96604150D01*
X159041296Y-96604152D01*
X159041305Y-96604153D01*
X159041306Y-96604154D01*
X159068170Y-96609497D01*
X159068176Y-96609498D01*
X159068216Y-96609506D01*
X159158562Y-96627477D01*
X159176631Y-96631072D01*
X159176632Y-96631072D01*
X171014621Y-96631072D01*
X171123082Y-96609497D01*
X171149953Y-96604152D01*
X171213694Y-96577749D01*
X171277432Y-96551349D01*
X171277433Y-96551348D01*
X171277436Y-96551347D01*
X171392168Y-96474686D01*
X173189739Y-94677115D01*
X173266400Y-94562383D01*
X173280410Y-94528561D01*
X173294054Y-94495619D01*
X173319205Y-94434900D01*
X173328014Y-94390612D01*
X173346125Y-94299568D01*
X173346125Y-89114059D01*
X243163011Y-89114059D01*
X243163047Y-89114606D01*
X243163047Y-89177411D01*
X243200312Y-89448536D01*
X243200313Y-89448542D01*
X243274149Y-89712065D01*
X243383180Y-89963081D01*
X243525376Y-90196913D01*
X243525378Y-90196915D01*
X243525379Y-90196917D01*
X243536502Y-90210589D01*
X243698089Y-90409206D01*
X243698092Y-90409208D01*
X243698093Y-90409210D01*
X243793195Y-90498029D01*
X243898107Y-90596011D01*
X244121682Y-90753827D01*
X244121688Y-90753831D01*
X244121690Y-90753832D01*
X244364683Y-90879741D01*
X244364686Y-90879742D01*
X244622551Y-90971388D01*
X244622567Y-90971393D01*
X244794884Y-91007200D01*
X244890507Y-91027070D01*
X244890508Y-91027071D01*
X244907988Y-91028266D01*
X245163547Y-91045747D01*
X245436585Y-91027071D01*
X245557167Y-91002013D01*
X245704526Y-90971393D01*
X245704532Y-90971390D01*
X245704537Y-90971390D01*
X245962411Y-90879741D01*
X246205404Y-90753832D01*
X246428989Y-90596009D01*
X246629001Y-90409210D01*
X246801715Y-90196917D01*
X246943912Y-89963083D01*
X247052945Y-89712064D01*
X247126782Y-89448537D01*
X247164047Y-89177410D01*
X247164047Y-89040572D01*
X247166915Y-83114880D01*
X247166952Y-83114354D01*
X247166952Y-83040571D01*
X247166956Y-83031464D01*
X247166984Y-82974922D01*
X247166983Y-82974919D01*
X247166987Y-82967152D01*
X247166952Y-82966601D01*
X247166952Y-82903732D01*
X247157096Y-82832024D01*
X247129687Y-82632607D01*
X247055850Y-82369080D01*
X246968489Y-82167954D01*
X246946818Y-82118062D01*
X246804622Y-81884230D01*
X246780900Y-81855072D01*
X246693265Y-81747354D01*
X246631909Y-81671937D01*
X246625043Y-81665525D01*
X246472079Y-81522665D01*
X246431891Y-81485132D01*
X246208316Y-81327316D01*
X246208310Y-81327312D01*
X245965312Y-81201401D01*
X245707447Y-81109755D01*
X245707431Y-81109750D01*
X245439492Y-81054073D01*
X245439490Y-81054072D01*
X245166452Y-81035397D01*
X244893413Y-81054072D01*
X244893411Y-81054073D01*
X244625472Y-81109750D01*
X244625456Y-81109755D01*
X244367591Y-81201401D01*
X244124593Y-81327312D01*
X244124587Y-81327316D01*
X243901012Y-81485132D01*
X243700994Y-81671937D01*
X243528281Y-81884230D01*
X243386085Y-82118062D01*
X243277054Y-82369078D01*
X243203218Y-82632601D01*
X243203217Y-82632607D01*
X243167620Y-82891601D01*
X243165952Y-82903734D01*
X243165952Y-83040525D01*
X243165920Y-83106464D01*
X243163081Y-88966556D01*
X243163047Y-88967101D01*
X243163047Y-89039643D01*
X243163011Y-89114059D01*
X173346125Y-89114059D01*
X173346125Y-86161577D01*
X173335308Y-86107200D01*
X173333985Y-86100550D01*
X173319205Y-86026244D01*
X173266400Y-85898761D01*
X173189739Y-85784029D01*
X173189737Y-85784026D01*
X169932444Y-82526733D01*
X169898959Y-82465410D01*
X169896125Y-82439052D01*
X169896125Y-77936576D01*
X169869206Y-77801249D01*
X169869205Y-77801248D01*
X169869205Y-77801244D01*
X169859044Y-77776713D01*
X169816403Y-77673767D01*
X169816396Y-77673754D01*
X169739739Y-77559030D01*
X169739736Y-77559026D01*
X169642170Y-77461460D01*
X169642166Y-77461457D01*
X169527442Y-77384800D01*
X169527429Y-77384793D01*
X169399957Y-77331993D01*
X169399947Y-77331990D01*
X169264620Y-77305072D01*
X169264618Y-77305072D01*
X169126632Y-77305072D01*
X169126630Y-77305072D01*
X168991302Y-77331990D01*
X168991292Y-77331993D01*
X168863820Y-77384793D01*
X168863807Y-77384800D01*
X168749083Y-77461457D01*
X168749079Y-77461460D01*
X168651513Y-77559026D01*
X168651510Y-77559030D01*
X168574853Y-77673754D01*
X168574846Y-77673767D01*
X168522046Y-77801239D01*
X168522043Y-77801249D01*
X168495125Y-77936576D01*
X168495125Y-77936579D01*
X168495125Y-78686579D01*
X168495125Y-79486579D01*
X168495125Y-80286579D01*
X168495125Y-81086579D01*
X168495125Y-81886579D01*
X168495125Y-82711578D01*
X168495125Y-82849566D01*
X168495125Y-82849568D01*
X168495124Y-82849568D01*
X168522043Y-82984894D01*
X168522046Y-82984904D01*
X168574847Y-83112379D01*
X168651512Y-83227117D01*
X168651513Y-83227118D01*
X171908806Y-86484410D01*
X171942291Y-86545733D01*
X171945125Y-86572091D01*
X171945125Y-93889052D01*
X171925440Y-93956091D01*
X171908806Y-93976733D01*
X171732806Y-94152733D01*
X171671483Y-94186218D01*
X171601791Y-94181234D01*
X171545858Y-94139362D01*
X171521441Y-94073898D01*
X171521125Y-94065052D01*
X171521125Y-93434430D01*
X171521125Y-93434428D01*
X171497239Y-93345284D01*
X171483094Y-93320784D01*
X171451095Y-93265360D01*
X171081355Y-92895620D01*
X171047870Y-92834297D01*
X171052854Y-92764605D01*
X171094726Y-92708672D01*
X171101966Y-92703644D01*
X171126753Y-92687715D01*
X171221002Y-92578945D01*
X171280790Y-92448029D01*
X171301272Y-92305572D01*
X171280790Y-92163115D01*
X171221002Y-92032199D01*
X171126753Y-91923429D01*
X171005678Y-91845619D01*
X171005676Y-91845618D01*
X171005674Y-91845617D01*
X171005675Y-91845617D01*
X170867588Y-91805072D01*
X170867586Y-91805072D01*
X170723664Y-91805072D01*
X170723661Y-91805072D01*
X170585574Y-91845617D01*
X170464498Y-91923428D01*
X170464497Y-91923428D01*
X170464497Y-91923429D01*
X170463541Y-91924533D01*
X170430837Y-91962275D01*
X170372058Y-92000049D01*
X170337124Y-92005072D01*
X169556063Y-92005072D01*
X169479635Y-92025550D01*
X169411114Y-92065112D01*
X169411111Y-92065114D01*
X167607473Y-93868753D01*
X167546150Y-93902238D01*
X167519792Y-93905072D01*
X160171458Y-93905072D01*
X160104419Y-93885387D01*
X160083777Y-93868753D01*
X157930137Y-91715113D01*
X157930129Y-91715107D01*
X157861620Y-91675554D01*
X157861615Y-91675551D01*
X157813710Y-91662715D01*
X157785187Y-91655072D01*
X157785185Y-91655072D01*
X148471458Y-91655072D01*
X148404419Y-91635387D01*
X148383777Y-91618753D01*
X147177210Y-90412186D01*
X147143725Y-90350863D01*
X147142153Y-90342151D01*
X147141011Y-90334210D01*
X147130790Y-90263115D01*
X147071002Y-90132199D01*
X146976753Y-90023429D01*
X146855678Y-89945619D01*
X146855676Y-89945618D01*
X146855674Y-89945617D01*
X146855675Y-89945617D01*
X146717588Y-89905072D01*
X146717586Y-89905072D01*
X146573664Y-89905072D01*
X146573661Y-89905072D01*
X146435574Y-89945617D01*
X146314498Y-90023428D01*
X146220248Y-90132198D01*
X146220247Y-90132200D01*
X146160459Y-90263115D01*
X146139978Y-90405572D01*
X146160459Y-90548028D01*
X146220194Y-90678827D01*
X146220248Y-90678945D01*
X146271172Y-90737715D01*
X146279601Y-90747442D01*
X146308626Y-90810998D01*
X146298682Y-90880157D01*
X146279602Y-90909847D01*
X146195248Y-91007198D01*
X146195247Y-91007200D01*
X146135459Y-91138115D01*
X146114978Y-91280572D01*
X146135459Y-91423028D01*
X146192959Y-91548932D01*
X146195248Y-91553945D01*
X146220439Y-91583017D01*
X146249464Y-91646571D01*
X146239521Y-91715729D01*
X146220440Y-91745421D01*
X146145248Y-91832199D01*
X146145247Y-91832200D01*
X146085459Y-91963115D01*
X146064978Y-92105572D01*
X146085459Y-92248028D01*
X146106637Y-92294400D01*
X146145248Y-92378945D01*
X146239497Y-92487715D01*
X146360572Y-92565525D01*
X146360575Y-92565526D01*
X146360574Y-92565526D01*
X146467732Y-92596989D01*
X146495905Y-92605262D01*
X146498661Y-92606071D01*
X146498663Y-92606072D01*
X146594792Y-92606072D01*
X146661831Y-92625757D01*
X146682473Y-92642391D01*
X146883473Y-92843391D01*
X146916958Y-92904714D01*
X146911974Y-92974406D01*
X146870102Y-93030339D01*
X146804638Y-93054756D01*
X146795792Y-93055072D01*
X113912144Y-93055072D01*
X113845105Y-93035387D01*
X113824463Y-93018753D01*
X109961282Y-89155572D01*
X151239978Y-89155572D01*
X151260459Y-89298028D01*
X151294946Y-89373542D01*
X151320248Y-89428945D01*
X151414497Y-89537715D01*
X151535572Y-89615525D01*
X151535575Y-89615526D01*
X151535574Y-89615526D01*
X151673661Y-89656071D01*
X151673663Y-89656072D01*
X151793369Y-89656072D01*
X151860408Y-89675757D01*
X151906163Y-89728561D01*
X151916107Y-89797718D01*
X151914978Y-89805570D01*
X151914978Y-89805571D01*
X151935459Y-89948028D01*
X151941296Y-89960808D01*
X151995248Y-90078945D01*
X152089497Y-90187715D01*
X152210572Y-90265525D01*
X152210575Y-90265526D01*
X152210574Y-90265526D01*
X152348661Y-90306071D01*
X152348663Y-90306072D01*
X152400414Y-90306072D01*
X152467453Y-90325757D01*
X152513208Y-90378561D01*
X152523152Y-90412425D01*
X152535459Y-90498028D01*
X152585770Y-90608192D01*
X152595248Y-90628945D01*
X152689497Y-90737715D01*
X152810572Y-90815525D01*
X152810575Y-90815526D01*
X152810574Y-90815526D01*
X152948661Y-90856071D01*
X152948663Y-90856072D01*
X152948664Y-90856072D01*
X153092587Y-90856072D01*
X153092587Y-90856071D01*
X153230678Y-90815525D01*
X153351753Y-90737715D01*
X153446002Y-90628945D01*
X153505790Y-90498029D01*
X153506204Y-90495150D01*
X157803344Y-90495150D01*
X157830263Y-90630477D01*
X157830266Y-90630487D01*
X157883066Y-90757959D01*
X157883073Y-90757972D01*
X157959730Y-90872696D01*
X157959733Y-90872700D01*
X158057299Y-90970266D01*
X158057303Y-90970269D01*
X158155445Y-91035846D01*
X158200250Y-91089458D01*
X158206328Y-91106853D01*
X158223821Y-91172136D01*
X158223824Y-91172143D01*
X158263385Y-91240666D01*
X158273385Y-91250666D01*
X158329334Y-91306615D01*
X158329336Y-91306616D01*
X158329340Y-91306619D01*
X158397849Y-91346172D01*
X158397856Y-91346176D01*
X158474283Y-91366655D01*
X158474286Y-91366655D01*
X158477929Y-91367135D01*
X158480775Y-91368394D01*
X158482133Y-91368758D01*
X158482076Y-91368969D01*
X158541826Y-91395401D01*
X158549426Y-91402393D01*
X158757298Y-91610266D01*
X158757299Y-91610267D01*
X158872037Y-91686932D01*
X158983477Y-91733091D01*
X158999517Y-91739735D01*
X158999521Y-91739735D01*
X158999522Y-91739736D01*
X159134848Y-91766655D01*
X159134851Y-91766655D01*
X159973413Y-91766655D01*
X160080160Y-91745421D01*
X160108745Y-91739735D01*
X160172486Y-91713332D01*
X160236224Y-91686932D01*
X160236225Y-91686931D01*
X160236228Y-91686930D01*
X160350960Y-91610269D01*
X166346614Y-85614615D01*
X166719112Y-85242117D01*
X166719114Y-85242115D01*
X166795775Y-85127383D01*
X166805479Y-85103957D01*
X166844930Y-85008711D01*
X166848580Y-84999900D01*
X166875500Y-84864566D01*
X166875500Y-84726578D01*
X166875500Y-84036579D01*
X166875500Y-84036576D01*
X166848581Y-83901249D01*
X166848580Y-83901248D01*
X166848580Y-83901244D01*
X166827298Y-83849865D01*
X166795778Y-83773767D01*
X166795771Y-83773754D01*
X166719114Y-83659030D01*
X166719111Y-83659026D01*
X166621545Y-83561460D01*
X166621541Y-83561457D01*
X166506817Y-83484800D01*
X166506804Y-83484793D01*
X166379332Y-83431993D01*
X166379322Y-83431990D01*
X166243995Y-83405072D01*
X166243993Y-83405072D01*
X166106007Y-83405072D01*
X166106005Y-83405072D01*
X165970677Y-83431990D01*
X165970667Y-83431993D01*
X165843195Y-83484793D01*
X165843182Y-83484800D01*
X165728458Y-83561457D01*
X165728454Y-83561460D01*
X165630888Y-83659026D01*
X165630885Y-83659030D01*
X165554228Y-83773754D01*
X165554221Y-83773767D01*
X165501421Y-83901239D01*
X165501418Y-83901249D01*
X165474500Y-84036576D01*
X165474500Y-84454051D01*
X165454815Y-84521090D01*
X165438181Y-84541732D01*
X165338516Y-84641397D01*
X165338514Y-84641400D01*
X159650579Y-90329336D01*
X159589256Y-90362821D01*
X159562898Y-90365655D01*
X159545364Y-90365655D01*
X159478325Y-90345970D01*
X159457683Y-90329336D01*
X159010391Y-89882043D01*
X159010390Y-89882042D01*
X158895652Y-89805377D01*
X158768177Y-89752576D01*
X158768167Y-89752573D01*
X158632841Y-89725655D01*
X158632839Y-89725655D01*
X158632838Y-89725655D01*
X158434852Y-89725655D01*
X158434850Y-89725655D01*
X158299522Y-89752573D01*
X158299512Y-89752576D01*
X158172040Y-89805376D01*
X158172027Y-89805383D01*
X158057303Y-89882040D01*
X158057299Y-89882043D01*
X157959733Y-89979609D01*
X157959730Y-89979613D01*
X157883073Y-90094337D01*
X157883066Y-90094350D01*
X157830266Y-90221822D01*
X157830263Y-90221832D01*
X157803345Y-90357159D01*
X157803345Y-90357162D01*
X157803345Y-90495148D01*
X157803345Y-90495150D01*
X157803344Y-90495150D01*
X153506204Y-90495150D01*
X153526272Y-90355572D01*
X153524964Y-90346477D01*
X153534904Y-90277321D01*
X153560017Y-90241149D01*
X155737766Y-88063400D01*
X155799087Y-88029917D01*
X155868779Y-88034901D01*
X155892485Y-88046768D01*
X155960573Y-88090526D01*
X156098661Y-88131071D01*
X156098663Y-88131072D01*
X156098664Y-88131072D01*
X156242587Y-88131072D01*
X156242587Y-88131071D01*
X156380678Y-88090525D01*
X156501753Y-88012715D01*
X156596002Y-87903945D01*
X156655790Y-87773029D01*
X156676272Y-87630572D01*
X156655790Y-87488115D01*
X156596002Y-87357199D01*
X156501753Y-87248429D01*
X156380678Y-87170619D01*
X156380676Y-87170618D01*
X156380674Y-87170617D01*
X156380675Y-87170617D01*
X156242588Y-87130072D01*
X156242586Y-87130072D01*
X156197881Y-87130072D01*
X156130842Y-87110387D01*
X156085087Y-87057583D01*
X156075143Y-86988426D01*
X156076272Y-86980573D01*
X156076272Y-86980572D01*
X156055790Y-86838115D01*
X156013623Y-86745784D01*
X155996002Y-86707199D01*
X155901753Y-86598429D01*
X155780678Y-86520619D01*
X155780676Y-86520618D01*
X155780674Y-86520617D01*
X155780675Y-86520617D01*
X155642588Y-86480072D01*
X155642586Y-86480072D01*
X155623025Y-86480072D01*
X155555986Y-86460387D01*
X155510231Y-86407583D01*
X155500287Y-86373719D01*
X155480790Y-86238115D01*
X155421002Y-86107200D01*
X155421001Y-86107198D01*
X155326753Y-85998429D01*
X155205678Y-85920619D01*
X155205676Y-85920618D01*
X155205674Y-85920617D01*
X155205675Y-85920617D01*
X155067588Y-85880072D01*
X155067586Y-85880072D01*
X154923664Y-85880072D01*
X154923661Y-85880072D01*
X154785574Y-85920617D01*
X154664498Y-85998428D01*
X154570248Y-86107198D01*
X154570247Y-86107200D01*
X154510459Y-86238115D01*
X154489978Y-86380572D01*
X154489978Y-86380573D01*
X154491286Y-86389675D01*
X154481338Y-86458833D01*
X154456228Y-86494996D01*
X152208922Y-88742302D01*
X152147599Y-88775787D01*
X152077907Y-88770803D01*
X152054201Y-88758936D01*
X151955676Y-88695617D01*
X151817588Y-88655072D01*
X151817586Y-88655072D01*
X151673664Y-88655072D01*
X151673661Y-88655072D01*
X151535574Y-88695617D01*
X151414498Y-88773428D01*
X151320248Y-88882198D01*
X151320247Y-88882200D01*
X151260459Y-89013115D01*
X151239978Y-89155572D01*
X109961282Y-89155572D01*
X108086282Y-87280572D01*
X123815042Y-87280572D01*
X123835324Y-87486504D01*
X123835325Y-87486506D01*
X123895393Y-87684526D01*
X123992940Y-87867022D01*
X123992942Y-87867024D01*
X124124214Y-88026982D01*
X124148324Y-88046768D01*
X124284175Y-88158257D01*
X124466671Y-88255804D01*
X124664691Y-88315872D01*
X124664690Y-88315872D01*
X124683154Y-88317690D01*
X124870625Y-88336155D01*
X125076559Y-88315872D01*
X125274579Y-88255804D01*
X125457075Y-88158257D01*
X125617035Y-88026982D01*
X125748310Y-87867022D01*
X125845857Y-87684526D01*
X125905925Y-87486506D01*
X125926208Y-87280572D01*
X125905925Y-87074638D01*
X125845857Y-86876618D01*
X125748310Y-86694122D01*
X125696327Y-86630781D01*
X125617035Y-86534161D01*
X125457077Y-86402889D01*
X125457078Y-86402889D01*
X125457075Y-86402887D01*
X125274579Y-86305340D01*
X125076559Y-86245272D01*
X125076557Y-86245271D01*
X125076559Y-86245271D01*
X124870625Y-86224989D01*
X124664692Y-86245271D01*
X124466668Y-86305341D01*
X124369677Y-86357185D01*
X124284175Y-86402887D01*
X124284173Y-86402888D01*
X124284172Y-86402889D01*
X124124214Y-86534161D01*
X123992942Y-86694119D01*
X123895394Y-86876615D01*
X123835324Y-87074639D01*
X123815042Y-87280572D01*
X108086282Y-87280572D01*
X105546282Y-84740572D01*
X114515042Y-84740572D01*
X114535324Y-84946504D01*
X114535325Y-84946506D01*
X114595393Y-85144526D01*
X114692940Y-85327022D01*
X114714489Y-85353280D01*
X114824214Y-85486982D01*
X114890910Y-85541717D01*
X114984175Y-85618257D01*
X115166671Y-85715804D01*
X115364691Y-85775872D01*
X115364690Y-85775872D01*
X115383154Y-85777690D01*
X115570625Y-85796155D01*
X115776559Y-85775872D01*
X115974579Y-85715804D01*
X116157075Y-85618257D01*
X116317035Y-85486982D01*
X116448310Y-85327022D01*
X116545857Y-85144526D01*
X116605925Y-84946506D01*
X116626208Y-84740572D01*
X119165042Y-84740572D01*
X119185324Y-84946504D01*
X119185325Y-84946506D01*
X119245393Y-85144526D01*
X119342940Y-85327022D01*
X119364489Y-85353280D01*
X119474214Y-85486982D01*
X119540910Y-85541717D01*
X119634175Y-85618257D01*
X119816671Y-85715804D01*
X120014691Y-85775872D01*
X120014690Y-85775872D01*
X120033154Y-85777690D01*
X120220625Y-85796155D01*
X120426559Y-85775872D01*
X120624579Y-85715804D01*
X120807075Y-85618257D01*
X120967035Y-85486982D01*
X121098310Y-85327022D01*
X121195857Y-85144526D01*
X121255925Y-84946506D01*
X121276208Y-84740572D01*
X121255925Y-84534638D01*
X121195857Y-84336618D01*
X121098310Y-84154122D01*
X121014268Y-84051716D01*
X120967035Y-83994161D01*
X120807077Y-83862889D01*
X120807078Y-83862889D01*
X120807075Y-83862887D01*
X120624579Y-83765340D01*
X120426559Y-83705272D01*
X120426557Y-83705271D01*
X120426559Y-83705271D01*
X120220625Y-83684989D01*
X120014692Y-83705271D01*
X119816668Y-83765341D01*
X119738389Y-83807183D01*
X119634175Y-83862887D01*
X119634173Y-83862888D01*
X119634172Y-83862889D01*
X119474214Y-83994161D01*
X119342942Y-84154119D01*
X119245394Y-84336615D01*
X119185324Y-84534639D01*
X119165042Y-84740572D01*
X116626208Y-84740572D01*
X116605925Y-84534638D01*
X116545857Y-84336618D01*
X116448310Y-84154122D01*
X116364268Y-84051716D01*
X116317035Y-83994161D01*
X116157077Y-83862889D01*
X116157078Y-83862889D01*
X116157075Y-83862887D01*
X115974579Y-83765340D01*
X115776559Y-83705272D01*
X115776557Y-83705271D01*
X115776559Y-83705271D01*
X115570625Y-83684989D01*
X115364692Y-83705271D01*
X115166668Y-83765341D01*
X115088389Y-83807183D01*
X114984175Y-83862887D01*
X114984173Y-83862888D01*
X114984172Y-83862889D01*
X114824214Y-83994161D01*
X114692942Y-84154119D01*
X114595394Y-84336615D01*
X114535324Y-84534639D01*
X114515042Y-84740572D01*
X105546282Y-84740572D01*
X94461076Y-73655366D01*
X94427591Y-73594043D01*
X94432575Y-73524351D01*
X94474447Y-73468418D01*
X94487229Y-73460027D01*
X94900465Y-73223891D01*
X94905791Y-73221020D01*
X94949158Y-73199014D01*
X94955731Y-73193848D01*
X94970814Y-73183693D01*
X94978073Y-73179546D01*
X95014750Y-73147667D01*
X95019426Y-73143802D01*
X95057660Y-73113762D01*
X95063097Y-73107415D01*
X95075916Y-73094506D01*
X95082221Y-73089028D01*
X95111980Y-73050599D01*
X95115813Y-73045895D01*
X95147444Y-73008982D01*
X95151534Y-73001703D01*
X95161591Y-72986537D01*
X95166708Y-72979931D01*
X95188402Y-72936426D01*
X95191240Y-72931071D01*
X95215062Y-72888698D01*
X95217655Y-72880757D01*
X95224559Y-72863924D01*
X95228288Y-72856448D01*
X95230165Y-72849567D01*
X102445124Y-72849567D01*
X102472043Y-72984894D01*
X102472046Y-72984904D01*
X102524846Y-73112376D01*
X102524853Y-73112389D01*
X102601510Y-73227113D01*
X102601513Y-73227117D01*
X102699079Y-73324683D01*
X102699083Y-73324686D01*
X102813807Y-73401343D01*
X102813820Y-73401350D01*
X102922768Y-73446477D01*
X102941297Y-73454152D01*
X102941301Y-73454152D01*
X102941302Y-73454153D01*
X103076629Y-73481072D01*
X103076632Y-73481072D01*
X103310912Y-73481072D01*
X103358360Y-73490509D01*
X103391297Y-73504152D01*
X103410572Y-73507985D01*
X103424900Y-73511739D01*
X103431772Y-73513985D01*
X103443553Y-73517837D01*
X103443556Y-73517837D01*
X103443560Y-73517839D01*
X103467931Y-73520766D01*
X103520178Y-73539565D01*
X103560572Y-73565525D01*
X103692523Y-73604269D01*
X103698661Y-73606071D01*
X103698663Y-73606072D01*
X103698664Y-73606072D01*
X103842587Y-73606072D01*
X103842587Y-73606071D01*
X103980678Y-73565525D01*
X104025809Y-73536520D01*
X104092847Y-73516835D01*
X104117033Y-73519217D01*
X104176631Y-73531072D01*
X104176632Y-73531072D01*
X104248664Y-73531072D01*
X104392586Y-73531072D01*
X136298997Y-73531072D01*
X136366036Y-73550757D01*
X136411791Y-73603561D01*
X136421735Y-73672719D01*
X136392710Y-73736275D01*
X136377662Y-73750925D01*
X136233590Y-73869161D01*
X136102317Y-74029119D01*
X136004769Y-74211615D01*
X135944699Y-74409639D01*
X135924417Y-74615572D01*
X135944699Y-74821504D01*
X135974734Y-74920516D01*
X136004768Y-75019526D01*
X136102315Y-75202022D01*
X136102317Y-75202024D01*
X136233589Y-75361982D01*
X136304634Y-75420286D01*
X136393550Y-75493257D01*
X136576046Y-75590804D01*
X136774066Y-75650872D01*
X136774065Y-75650872D01*
X136792529Y-75652690D01*
X136980000Y-75671155D01*
X137185934Y-75650872D01*
X137383954Y-75590804D01*
X137566450Y-75493257D01*
X137726410Y-75361982D01*
X137857685Y-75202022D01*
X137955232Y-75019526D01*
X138015300Y-74821506D01*
X138035583Y-74615572D01*
X138015300Y-74409638D01*
X137955232Y-74211618D01*
X137857685Y-74029122D01*
X137726410Y-73869162D01*
X137709949Y-73855653D01*
X137582338Y-73750925D01*
X137543004Y-73693180D01*
X137541133Y-73623335D01*
X137577320Y-73563567D01*
X137640076Y-73532851D01*
X137661003Y-73531072D01*
X138838997Y-73531072D01*
X138906036Y-73550757D01*
X138951791Y-73603561D01*
X138961735Y-73672719D01*
X138932710Y-73736275D01*
X138917662Y-73750925D01*
X138773590Y-73869161D01*
X138642317Y-74029119D01*
X138544769Y-74211615D01*
X138484699Y-74409639D01*
X138464417Y-74615572D01*
X138484699Y-74821504D01*
X138514734Y-74920516D01*
X138544768Y-75019526D01*
X138642315Y-75202022D01*
X138642317Y-75202024D01*
X138773589Y-75361982D01*
X138844634Y-75420286D01*
X138933550Y-75493257D01*
X139116046Y-75590804D01*
X139314066Y-75650872D01*
X139314065Y-75650872D01*
X139332529Y-75652690D01*
X139520000Y-75671155D01*
X139725934Y-75650872D01*
X139923954Y-75590804D01*
X140106450Y-75493257D01*
X140266410Y-75361982D01*
X140397685Y-75202022D01*
X140495232Y-75019526D01*
X140555300Y-74821506D01*
X140575583Y-74615572D01*
X140555300Y-74409638D01*
X140495232Y-74211618D01*
X140397685Y-74029122D01*
X140266410Y-73869162D01*
X140249949Y-73855653D01*
X140122338Y-73750925D01*
X140083004Y-73693180D01*
X140081133Y-73623335D01*
X140117320Y-73563567D01*
X140180076Y-73532851D01*
X140201003Y-73531072D01*
X140954106Y-73531072D01*
X141021145Y-73550757D01*
X141041787Y-73567391D01*
X141167576Y-73693180D01*
X141247629Y-73773232D01*
X141281114Y-73834555D01*
X141276130Y-73904246D01*
X141255803Y-73939575D01*
X141225537Y-73976455D01*
X141182315Y-74029121D01*
X141084769Y-74211615D01*
X141024699Y-74409639D01*
X141004417Y-74615572D01*
X141024699Y-74821504D01*
X141054734Y-74920516D01*
X141084768Y-75019526D01*
X141182315Y-75202022D01*
X141182317Y-75202024D01*
X141313589Y-75361982D01*
X141384634Y-75420286D01*
X141473550Y-75493257D01*
X141656046Y-75590804D01*
X141854066Y-75650872D01*
X141854065Y-75650872D01*
X141872529Y-75652690D01*
X142060000Y-75671155D01*
X142265934Y-75650872D01*
X142463954Y-75590804D01*
X142646450Y-75493257D01*
X142806410Y-75361982D01*
X142937685Y-75202022D01*
X143035232Y-75019526D01*
X143095300Y-74821506D01*
X143115583Y-74615572D01*
X143095300Y-74409638D01*
X143035232Y-74211618D01*
X142937685Y-74029122D01*
X142806410Y-73869162D01*
X142805827Y-73868684D01*
X142805604Y-73868356D01*
X142802103Y-73864855D01*
X142802767Y-73864190D01*
X142766498Y-73810937D01*
X142760500Y-73772837D01*
X142760500Y-73655072D01*
X142780185Y-73588033D01*
X142832989Y-73542278D01*
X142884500Y-73531072D01*
X145404106Y-73531072D01*
X145471145Y-73550757D01*
X145491787Y-73567391D01*
X147524078Y-75599683D01*
X147524079Y-75599684D01*
X147524082Y-75599686D01*
X147638814Y-75676347D01*
X147766296Y-75729152D01*
X147775944Y-75731071D01*
X147826219Y-75741071D01*
X147901629Y-75756072D01*
X147901632Y-75756072D01*
X160489621Y-75756072D01*
X160580665Y-75737961D01*
X160624953Y-75729152D01*
X160692641Y-75701115D01*
X160752432Y-75676349D01*
X160752433Y-75676348D01*
X160752436Y-75676347D01*
X160867168Y-75599686D01*
X163649462Y-72817390D01*
X163710785Y-72783906D01*
X163737143Y-72781072D01*
X165325082Y-72781072D01*
X165392121Y-72800757D01*
X165437876Y-72853561D01*
X165447820Y-72922719D01*
X165418795Y-72986275D01*
X165412763Y-72992753D01*
X163065156Y-75340358D01*
X163065154Y-75340361D01*
X163021764Y-75415517D01*
X163021760Y-75415524D01*
X163019010Y-75420286D01*
X162995125Y-75509428D01*
X162995125Y-77534028D01*
X162975440Y-77601067D01*
X162958806Y-77621709D01*
X159586762Y-80993753D01*
X159525439Y-81027238D01*
X159499081Y-81030072D01*
X146792169Y-81030072D01*
X146725130Y-81010387D01*
X146704488Y-80993753D01*
X142375541Y-76664806D01*
X150224500Y-76664806D01*
X150224500Y-76816338D01*
X150228046Y-76829572D01*
X150263719Y-76962708D01*
X150291760Y-77011275D01*
X150339485Y-77093937D01*
X150446635Y-77201087D01*
X150577865Y-77276853D01*
X150724234Y-77316072D01*
X150724236Y-77316072D01*
X150875764Y-77316072D01*
X150875766Y-77316072D01*
X151022135Y-77276853D01*
X151153365Y-77201087D01*
X151260515Y-77093937D01*
X151336281Y-76962707D01*
X151375500Y-76816338D01*
X151375500Y-76664806D01*
X156004500Y-76664806D01*
X156004500Y-76816338D01*
X156008046Y-76829572D01*
X156043719Y-76962708D01*
X156071760Y-77011275D01*
X156119485Y-77093937D01*
X156226635Y-77201087D01*
X156357865Y-77276853D01*
X156504234Y-77316072D01*
X156504236Y-77316072D01*
X156655764Y-77316072D01*
X156655766Y-77316072D01*
X156802135Y-77276853D01*
X156933365Y-77201087D01*
X157040515Y-77093937D01*
X157116281Y-76962707D01*
X157155500Y-76816338D01*
X157155500Y-76664806D01*
X157116281Y-76518437D01*
X157040515Y-76387207D01*
X156933365Y-76280057D01*
X156831975Y-76221519D01*
X156802136Y-76204291D01*
X156693210Y-76175105D01*
X156655766Y-76165072D01*
X156504234Y-76165072D01*
X156357863Y-76204291D01*
X156226635Y-76280057D01*
X156226632Y-76280059D01*
X156119487Y-76387204D01*
X156119485Y-76387207D01*
X156043719Y-76518435D01*
X156012403Y-76635310D01*
X156004500Y-76664806D01*
X151375500Y-76664806D01*
X151336281Y-76518437D01*
X151260515Y-76387207D01*
X151153365Y-76280057D01*
X151051975Y-76221519D01*
X151022136Y-76204291D01*
X150913210Y-76175105D01*
X150875766Y-76165072D01*
X150724234Y-76165072D01*
X150577863Y-76204291D01*
X150446635Y-76280057D01*
X150446632Y-76280059D01*
X150339487Y-76387204D01*
X150339485Y-76387207D01*
X150263719Y-76518435D01*
X150232403Y-76635310D01*
X150224500Y-76664806D01*
X142375541Y-76664806D01*
X141885838Y-76175103D01*
X141885833Y-76175099D01*
X141805915Y-76128959D01*
X141805914Y-76128958D01*
X141805913Y-76128958D01*
X141716769Y-76105072D01*
X123379481Y-76105072D01*
X123290336Y-76128958D01*
X123210412Y-76175103D01*
X123210409Y-76175105D01*
X120811762Y-78573753D01*
X120750439Y-78607238D01*
X120724081Y-78610072D01*
X119350872Y-78610072D01*
X119292395Y-78621703D01*
X119292394Y-78621704D01*
X119226072Y-78666019D01*
X119181757Y-78732341D01*
X119181756Y-78732342D01*
X119170125Y-78790819D01*
X119170125Y-79186072D01*
X119150440Y-79253111D01*
X119097636Y-79298866D01*
X119046125Y-79310072D01*
X116745125Y-79310072D01*
X116678086Y-79290387D01*
X116632331Y-79237583D01*
X116621125Y-79186072D01*
X116621125Y-78790821D01*
X116621124Y-78790819D01*
X116609493Y-78732342D01*
X116609492Y-78732341D01*
X116565177Y-78666019D01*
X116498855Y-78621704D01*
X116498854Y-78621703D01*
X116440377Y-78610072D01*
X116440373Y-78610072D01*
X114700877Y-78610072D01*
X114700872Y-78610072D01*
X114642395Y-78621703D01*
X114642394Y-78621704D01*
X114576072Y-78666019D01*
X114531757Y-78732341D01*
X114531756Y-78732342D01*
X114520125Y-78790819D01*
X114520125Y-80530324D01*
X114531756Y-80588801D01*
X114531757Y-80588802D01*
X114576072Y-80655124D01*
X114642394Y-80699439D01*
X114642395Y-80699440D01*
X114700872Y-80711071D01*
X114700875Y-80711072D01*
X114700877Y-80711072D01*
X116440375Y-80711072D01*
X116440376Y-80711071D01*
X116455193Y-80708124D01*
X116498854Y-80699440D01*
X116498854Y-80699439D01*
X116498856Y-80699439D01*
X116565177Y-80655124D01*
X116609492Y-80588803D01*
X116609492Y-80588801D01*
X116609493Y-80588801D01*
X116621124Y-80530324D01*
X116621125Y-80530322D01*
X116621125Y-80135072D01*
X116640810Y-80068033D01*
X116693614Y-80022278D01*
X116745125Y-80011072D01*
X119046125Y-80011072D01*
X119113164Y-80030757D01*
X119158919Y-80083561D01*
X119170125Y-80135072D01*
X119170125Y-80530324D01*
X119181756Y-80588801D01*
X119181757Y-80588802D01*
X119226072Y-80655124D01*
X119292394Y-80699439D01*
X119292395Y-80699440D01*
X119350872Y-80711071D01*
X119350875Y-80711072D01*
X119350877Y-80711072D01*
X120670081Y-80711072D01*
X120737120Y-80730757D01*
X120782875Y-80783561D01*
X120792819Y-80852719D01*
X120763794Y-80916275D01*
X120757781Y-80922733D01*
X120593935Y-81086579D01*
X120547155Y-81133359D01*
X120485832Y-81166843D01*
X120432877Y-81164717D01*
X120432531Y-81166460D01*
X120426558Y-81165271D01*
X120240907Y-81146986D01*
X120220625Y-81144989D01*
X120220624Y-81144989D01*
X120014692Y-81165271D01*
X119881838Y-81205572D01*
X119829792Y-81221360D01*
X119816668Y-81225341D01*
X119732481Y-81270341D01*
X119634175Y-81322887D01*
X119634173Y-81322888D01*
X119634172Y-81322889D01*
X119474214Y-81454161D01*
X119343836Y-81613030D01*
X119342940Y-81614122D01*
X119315464Y-81665525D01*
X119251856Y-81784526D01*
X119202893Y-81834370D01*
X119142498Y-81850072D01*
X116648752Y-81850072D01*
X116581713Y-81830387D01*
X116539394Y-81784526D01*
X116516811Y-81742278D01*
X116448310Y-81614122D01*
X116373254Y-81522665D01*
X116317035Y-81454161D01*
X116187711Y-81348029D01*
X116157075Y-81322887D01*
X115987179Y-81232074D01*
X115974581Y-81225341D01*
X115974580Y-81225340D01*
X115974579Y-81225340D01*
X115776559Y-81165272D01*
X115776557Y-81165271D01*
X115776559Y-81165271D01*
X115570625Y-81144989D01*
X115364692Y-81165271D01*
X115231838Y-81205572D01*
X115179792Y-81221360D01*
X115166668Y-81225341D01*
X115082481Y-81270341D01*
X114984175Y-81322887D01*
X114984173Y-81322888D01*
X114984172Y-81322889D01*
X114824214Y-81454161D01*
X114693836Y-81613030D01*
X114692940Y-81614122D01*
X114665464Y-81665525D01*
X114595394Y-81796615D01*
X114535324Y-81994639D01*
X114515042Y-82200572D01*
X114535324Y-82406504D01*
X114545304Y-82439403D01*
X114595393Y-82604526D01*
X114692940Y-82787022D01*
X114727170Y-82828732D01*
X114824214Y-82946982D01*
X114909189Y-83016718D01*
X114984175Y-83078257D01*
X115166671Y-83175804D01*
X115364691Y-83235872D01*
X115364690Y-83235872D01*
X115383154Y-83237690D01*
X115570625Y-83256155D01*
X115776559Y-83235872D01*
X115974579Y-83175804D01*
X116157075Y-83078257D01*
X116317035Y-82946982D01*
X116448310Y-82787022D01*
X116530847Y-82632607D01*
X116539394Y-82616618D01*
X116588357Y-82566774D01*
X116648752Y-82551072D01*
X119142498Y-82551072D01*
X119209537Y-82570757D01*
X119251856Y-82616618D01*
X119269446Y-82649526D01*
X119342940Y-82787022D01*
X119377170Y-82828732D01*
X119474214Y-82946982D01*
X119559189Y-83016718D01*
X119634175Y-83078257D01*
X119816671Y-83175804D01*
X120014691Y-83235872D01*
X120014690Y-83235872D01*
X120033154Y-83237690D01*
X120220625Y-83256155D01*
X120426559Y-83235872D01*
X120624579Y-83175804D01*
X120807075Y-83078257D01*
X120967035Y-82946982D01*
X121098310Y-82787022D01*
X121195857Y-82604526D01*
X121255925Y-82406506D01*
X121276208Y-82200572D01*
X121255925Y-81994638D01*
X121195857Y-81796618D01*
X121127534Y-81668796D01*
X121113293Y-81600398D01*
X121138292Y-81535154D01*
X121149204Y-81522673D01*
X123608446Y-79063432D01*
X123669767Y-79029949D01*
X123739459Y-79034933D01*
X123795392Y-79076805D01*
X123819809Y-79142269D01*
X123820125Y-79151115D01*
X123820125Y-80530324D01*
X123831756Y-80588801D01*
X123831757Y-80588802D01*
X123876072Y-80655124D01*
X123942394Y-80699439D01*
X123942395Y-80699440D01*
X124000872Y-80711071D01*
X124000875Y-80711072D01*
X124000877Y-80711072D01*
X125374081Y-80711072D01*
X125441120Y-80730757D01*
X125461762Y-80747391D01*
X125950413Y-81236042D01*
X125950415Y-81236043D01*
X125950419Y-81236046D01*
X126028067Y-81280876D01*
X126028068Y-81280876D01*
X126030337Y-81282186D01*
X126119481Y-81306072D01*
X126119482Y-81306072D01*
X126211769Y-81306072D01*
X128533573Y-81306072D01*
X128600612Y-81325757D01*
X128646367Y-81378561D01*
X128656311Y-81447719D01*
X128629427Y-81508736D01*
X128543836Y-81613030D01*
X128542940Y-81614122D01*
X128515464Y-81665525D01*
X128445394Y-81796615D01*
X128385324Y-81994639D01*
X128365042Y-82200572D01*
X128385324Y-82406504D01*
X128395304Y-82439403D01*
X128445388Y-82604511D01*
X128445394Y-82604528D01*
X128542942Y-82787025D01*
X128658150Y-82927407D01*
X128685463Y-82991717D01*
X128673672Y-83060585D01*
X128626519Y-83112145D01*
X128562297Y-83130072D01*
X126347168Y-83130072D01*
X126280129Y-83110387D01*
X126259487Y-83093753D01*
X125880816Y-82715082D01*
X125847331Y-82653759D01*
X125849835Y-82591409D01*
X125905925Y-82406506D01*
X125926208Y-82200572D01*
X125905925Y-81994638D01*
X125845857Y-81796618D01*
X125748310Y-81614122D01*
X125673254Y-81522665D01*
X125617035Y-81454161D01*
X125487711Y-81348029D01*
X125457075Y-81322887D01*
X125287179Y-81232074D01*
X125274581Y-81225341D01*
X125274580Y-81225340D01*
X125274579Y-81225340D01*
X125076559Y-81165272D01*
X125076557Y-81165271D01*
X125076559Y-81165271D01*
X124870625Y-81144989D01*
X124664692Y-81165271D01*
X124531838Y-81205572D01*
X124479792Y-81221360D01*
X124466668Y-81225341D01*
X124382481Y-81270341D01*
X124284175Y-81322887D01*
X124284173Y-81322888D01*
X124284172Y-81322889D01*
X124124214Y-81454161D01*
X123993836Y-81613030D01*
X123992940Y-81614122D01*
X123965464Y-81665525D01*
X123895394Y-81796615D01*
X123835324Y-81994639D01*
X123815042Y-82200572D01*
X123835324Y-82406504D01*
X123845304Y-82439403D01*
X123895393Y-82604526D01*
X123992940Y-82787022D01*
X124027170Y-82828732D01*
X124124214Y-82946982D01*
X124209189Y-83016718D01*
X124284175Y-83078257D01*
X124466671Y-83175804D01*
X124664691Y-83235872D01*
X124664690Y-83235872D01*
X124683154Y-83237690D01*
X124870625Y-83256155D01*
X125076559Y-83235872D01*
X125261461Y-83179782D01*
X125331326Y-83179160D01*
X125385135Y-83210763D01*
X125870156Y-83695784D01*
X125935413Y-83761041D01*
X125935416Y-83761042D01*
X125935419Y-83761045D01*
X126015331Y-83807183D01*
X126015332Y-83807183D01*
X126015337Y-83807186D01*
X126104481Y-83831072D01*
X128545883Y-83831072D01*
X128612922Y-83850757D01*
X128658677Y-83903561D01*
X128668621Y-83972719D01*
X128641737Y-84033736D01*
X128542942Y-84154119D01*
X128445394Y-84336615D01*
X128385324Y-84534639D01*
X128365042Y-84740572D01*
X128385324Y-84946504D01*
X128385325Y-84946506D01*
X128445393Y-85144526D01*
X128542940Y-85327022D01*
X128564489Y-85353280D01*
X128674214Y-85486982D01*
X128740910Y-85541717D01*
X128834175Y-85618257D01*
X129016671Y-85715804D01*
X129214691Y-85775872D01*
X129214690Y-85775872D01*
X129233154Y-85777690D01*
X129420625Y-85796155D01*
X129626559Y-85775872D01*
X129824579Y-85715804D01*
X130007075Y-85618257D01*
X130167035Y-85486982D01*
X130298310Y-85327022D01*
X130395857Y-85144526D01*
X130455925Y-84946506D01*
X130473708Y-84765945D01*
X130499869Y-84701161D01*
X130556903Y-84660802D01*
X130626703Y-84657685D01*
X130684792Y-84690421D01*
X132305413Y-86311042D01*
X132385337Y-86357186D01*
X132474481Y-86381072D01*
X132474482Y-86381072D01*
X132566769Y-86381072D01*
X139799081Y-86381072D01*
X139866120Y-86400757D01*
X139886762Y-86417391D01*
X141955412Y-88486041D01*
X142021444Y-88524165D01*
X142035337Y-88532186D01*
X142124481Y-88556072D01*
X143431730Y-88556072D01*
X143498769Y-88575757D01*
X143512937Y-88586362D01*
X143514491Y-88587709D01*
X143514497Y-88587715D01*
X143635572Y-88665525D01*
X143635575Y-88665526D01*
X143635574Y-88665526D01*
X143773661Y-88706071D01*
X143773663Y-88706072D01*
X143773664Y-88706072D01*
X143917587Y-88706072D01*
X143917587Y-88706071D01*
X144055678Y-88665525D01*
X144176753Y-88587715D01*
X144271002Y-88478945D01*
X144330790Y-88348029D01*
X144351272Y-88205572D01*
X144330790Y-88063115D01*
X144271002Y-87932199D01*
X144176753Y-87823429D01*
X144055678Y-87745619D01*
X144055676Y-87745618D01*
X144055674Y-87745617D01*
X144055675Y-87745617D01*
X143917588Y-87705072D01*
X143917586Y-87705072D01*
X143897881Y-87705072D01*
X143830842Y-87685387D01*
X143785087Y-87632583D01*
X143775143Y-87563426D01*
X143776272Y-87555573D01*
X143776272Y-87555572D01*
X143755790Y-87413114D01*
X143755789Y-87413113D01*
X143752808Y-87406585D01*
X143742863Y-87337427D01*
X143771887Y-87273871D01*
X143830664Y-87236095D01*
X143865601Y-87231072D01*
X144741767Y-87231072D01*
X144741769Y-87231072D01*
X144830913Y-87207186D01*
X144831833Y-87206655D01*
X144831839Y-87206650D01*
X144910837Y-87161042D01*
X148879487Y-83192390D01*
X148940810Y-83158906D01*
X148967168Y-83156072D01*
X159991766Y-83156072D01*
X159991769Y-83156072D01*
X160080913Y-83132186D01*
X160080917Y-83132183D01*
X160080919Y-83132183D01*
X160084571Y-83130074D01*
X160084573Y-83130073D01*
X160160837Y-83086042D01*
X164626095Y-78620784D01*
X164672239Y-78540860D01*
X164675263Y-78529573D01*
X164681777Y-78505267D01*
X164691648Y-78468425D01*
X164696125Y-78451716D01*
X164696125Y-75577116D01*
X164715810Y-75510077D01*
X164732444Y-75489435D01*
X166042307Y-74179572D01*
X216365125Y-74179572D01*
X216365125Y-76156572D01*
X216365126Y-76156581D01*
X216372106Y-76221507D01*
X216372108Y-76221519D01*
X216383313Y-76273025D01*
X216394269Y-76311226D01*
X216394271Y-76311230D01*
X216449806Y-76406188D01*
X216450950Y-76408143D01*
X216452136Y-76409512D01*
X216452497Y-76410302D01*
X216454288Y-76412802D01*
X216453798Y-76413152D01*
X216481160Y-76473067D01*
X216471216Y-76542225D01*
X216453134Y-76569103D01*
X216453176Y-76569133D01*
X216451779Y-76571116D01*
X216448647Y-76575774D01*
X216448077Y-76576377D01*
X216448070Y-76576388D01*
X216397185Y-76676462D01*
X216377502Y-76743493D01*
X216377501Y-76743500D01*
X216365125Y-76829572D01*
X216365125Y-78831572D01*
X216365126Y-78831581D01*
X216372106Y-78896507D01*
X216372108Y-78896519D01*
X216383313Y-78948025D01*
X216394269Y-78986226D01*
X216394271Y-78986230D01*
X216450948Y-79083140D01*
X216450950Y-79083143D01*
X216496706Y-79135948D01*
X216496716Y-79135959D01*
X216541432Y-79178120D01*
X216541434Y-79178121D01*
X216541438Y-79178125D01*
X216641514Y-79229011D01*
X216708553Y-79248696D01*
X216794625Y-79261072D01*
X216794628Y-79261072D01*
X220546615Y-79261072D01*
X220546625Y-79261072D01*
X220611566Y-79254090D01*
X220663077Y-79242884D01*
X220701283Y-79231926D01*
X220798196Y-79175247D01*
X220851000Y-79129492D01*
X220851007Y-79129484D01*
X220851012Y-79129480D01*
X220893173Y-79084764D01*
X220893178Y-79084759D01*
X220944064Y-78984683D01*
X220963749Y-78917644D01*
X220976125Y-78831572D01*
X220976125Y-76829572D01*
X220969143Y-76764631D01*
X220957937Y-76713120D01*
X220946979Y-76674914D01*
X220890300Y-76578001D01*
X220889115Y-76576633D01*
X220888755Y-76575845D01*
X220886962Y-76573342D01*
X220887451Y-76572991D01*
X220860089Y-76513078D01*
X220870032Y-76443919D01*
X220888116Y-76417040D01*
X220888074Y-76417011D01*
X220889494Y-76414992D01*
X220892611Y-76410360D01*
X220893178Y-76409759D01*
X220944064Y-76309683D01*
X220963749Y-76242644D01*
X220976125Y-76156572D01*
X220976125Y-74179572D01*
X220969143Y-74114631D01*
X220957937Y-74063120D01*
X220946979Y-74024914D01*
X220890300Y-73928001D01*
X220844545Y-73875197D01*
X220844543Y-73875195D01*
X220844533Y-73875184D01*
X220799817Y-73833023D01*
X220799814Y-73833021D01*
X220799812Y-73833019D01*
X220699736Y-73782133D01*
X220699735Y-73782132D01*
X220699734Y-73782132D01*
X220632703Y-73762449D01*
X220632697Y-73762448D01*
X220546625Y-73750072D01*
X216794625Y-73750072D01*
X216794616Y-73750072D01*
X216794615Y-73750073D01*
X216729689Y-73757053D01*
X216729677Y-73757055D01*
X216678171Y-73768260D01*
X216639970Y-73779216D01*
X216639966Y-73779218D01*
X216543056Y-73835895D01*
X216543053Y-73835897D01*
X216490248Y-73881653D01*
X216490237Y-73881663D01*
X216448076Y-73926379D01*
X216448070Y-73926388D01*
X216397185Y-74026462D01*
X216377502Y-74093493D01*
X216377501Y-74093500D01*
X216365125Y-74179572D01*
X166042307Y-74179572D01*
X166354488Y-73867391D01*
X166415811Y-73833906D01*
X166442169Y-73831072D01*
X186466767Y-73831072D01*
X186466769Y-73831072D01*
X186555913Y-73807186D01*
X186569615Y-73799275D01*
X186635837Y-73761042D01*
X192264488Y-68132391D01*
X192325811Y-68098906D01*
X192352169Y-68096072D01*
X194742498Y-68096072D01*
X194809537Y-68115757D01*
X194851856Y-68161618D01*
X194942940Y-68332022D01*
X194942942Y-68332024D01*
X195074214Y-68491982D01*
X195170834Y-68571274D01*
X195234175Y-68623257D01*
X195416671Y-68720804D01*
X195614691Y-68780872D01*
X195614690Y-68780872D01*
X195633154Y-68782690D01*
X195820625Y-68801155D01*
X196026559Y-68780872D01*
X196224579Y-68720804D01*
X196407075Y-68623257D01*
X196567035Y-68491982D01*
X196698310Y-68332022D01*
X196795857Y-68149526D01*
X196855925Y-67951506D01*
X196876208Y-67745572D01*
X196855925Y-67539638D01*
X196795857Y-67341618D01*
X196698310Y-67159122D01*
X196646327Y-67095781D01*
X196567035Y-66999161D01*
X196407077Y-66867889D01*
X196407078Y-66867889D01*
X196407075Y-66867887D01*
X196224579Y-66770340D01*
X196026559Y-66710272D01*
X196026557Y-66710271D01*
X196026559Y-66710271D01*
X195820625Y-66689989D01*
X195614692Y-66710271D01*
X195416668Y-66770341D01*
X195306523Y-66829215D01*
X195234175Y-66867887D01*
X195234173Y-66867888D01*
X195234172Y-66867889D01*
X195074214Y-66999161D01*
X194942942Y-67159119D01*
X194942940Y-67159122D01*
X194895539Y-67247800D01*
X194851856Y-67329526D01*
X194802893Y-67379370D01*
X194742498Y-67395072D01*
X192201169Y-67395072D01*
X192134130Y-67375387D01*
X192088375Y-67322583D01*
X192078431Y-67253425D01*
X192107456Y-67189869D01*
X192113488Y-67183391D01*
X193704488Y-65592391D01*
X193765811Y-65558906D01*
X193792169Y-65556072D01*
X194646125Y-65556072D01*
X194713164Y-65575757D01*
X194758919Y-65628561D01*
X194770125Y-65680072D01*
X194770125Y-66075324D01*
X194781756Y-66133801D01*
X194781757Y-66133802D01*
X194826072Y-66200124D01*
X194892394Y-66244439D01*
X194892395Y-66244440D01*
X194950872Y-66256071D01*
X194950875Y-66256072D01*
X194950877Y-66256072D01*
X196690375Y-66256072D01*
X196690376Y-66256071D01*
X196705193Y-66253124D01*
X196748854Y-66244440D01*
X196748854Y-66244439D01*
X196748856Y-66244439D01*
X196815177Y-66200124D01*
X196859492Y-66133803D01*
X196859492Y-66133801D01*
X196859493Y-66133801D01*
X196871124Y-66075324D01*
X196871125Y-66075322D01*
X196871125Y-64335821D01*
X196871124Y-64335819D01*
X196859493Y-64277342D01*
X196859492Y-64277341D01*
X196815177Y-64211019D01*
X196748855Y-64166704D01*
X196748854Y-64166703D01*
X196690377Y-64155072D01*
X196690373Y-64155072D01*
X194950877Y-64155072D01*
X194950872Y-64155072D01*
X194892395Y-64166703D01*
X194892394Y-64166704D01*
X194826072Y-64211019D01*
X194781757Y-64277341D01*
X194781756Y-64277342D01*
X194770125Y-64335819D01*
X194770125Y-64731072D01*
X194750440Y-64798111D01*
X194697636Y-64843866D01*
X194646125Y-64855072D01*
X193811143Y-64855072D01*
X193744104Y-64835387D01*
X193698349Y-64782583D01*
X193688405Y-64713425D01*
X193717430Y-64649869D01*
X193723462Y-64643391D01*
X194013782Y-64353072D01*
X194474463Y-63892391D01*
X194535786Y-63858906D01*
X194562144Y-63856072D01*
X196979106Y-63856072D01*
X197046145Y-63875757D01*
X197066787Y-63892391D01*
X197508806Y-64334410D01*
X197542291Y-64395733D01*
X197545125Y-64422091D01*
X197545125Y-69461072D01*
X197525440Y-69528111D01*
X197472636Y-69573866D01*
X197421125Y-69585072D01*
X196663360Y-69585072D01*
X196596321Y-69565387D01*
X196571505Y-69543297D01*
X196571338Y-69543465D01*
X196568459Y-69540586D01*
X196567510Y-69539741D01*
X196567033Y-69539160D01*
X196407077Y-69407889D01*
X196407078Y-69407889D01*
X196407075Y-69407887D01*
X196224579Y-69310340D01*
X196026559Y-69250272D01*
X196026557Y-69250271D01*
X196026559Y-69250271D01*
X195820625Y-69229989D01*
X195614692Y-69250271D01*
X195416668Y-69310341D01*
X195306523Y-69369215D01*
X195234175Y-69407887D01*
X195234173Y-69407888D01*
X195234172Y-69407889D01*
X195074214Y-69539161D01*
X194942942Y-69699119D01*
X194845394Y-69881615D01*
X194785324Y-70079639D01*
X194765042Y-70285572D01*
X194785324Y-70491504D01*
X194813037Y-70582860D01*
X194845393Y-70689526D01*
X194942940Y-70872022D01*
X194956278Y-70888274D01*
X195074214Y-71031982D01*
X195153334Y-71096913D01*
X195234175Y-71163257D01*
X195416671Y-71260804D01*
X195614691Y-71320872D01*
X195614690Y-71320872D01*
X195633154Y-71322690D01*
X195820625Y-71341155D01*
X196026559Y-71320872D01*
X196224579Y-71260804D01*
X196407075Y-71163257D01*
X196567035Y-71031982D01*
X196567510Y-71031402D01*
X196567837Y-71031180D01*
X196571338Y-71027679D01*
X196572002Y-71028343D01*
X196625257Y-70992071D01*
X196663360Y-70986072D01*
X198314620Y-70986072D01*
X198405666Y-70967961D01*
X198449953Y-70959152D01*
X198577436Y-70906347D01*
X198692167Y-70829686D01*
X198789739Y-70732114D01*
X198807170Y-70706026D01*
X198817090Y-70691181D01*
X198870702Y-70646376D01*
X198920192Y-70636072D01*
X218154081Y-70636072D01*
X218221120Y-70655757D01*
X218241762Y-70672391D01*
X228734120Y-81164749D01*
X228767605Y-81226072D01*
X228769177Y-81234782D01*
X228785459Y-81348028D01*
X228813823Y-81410135D01*
X228845248Y-81478945D01*
X228939497Y-81587715D01*
X229060572Y-81665525D01*
X229060575Y-81665526D01*
X229060574Y-81665526D01*
X229198661Y-81706071D01*
X229198663Y-81706072D01*
X229198664Y-81706072D01*
X229342587Y-81706072D01*
X229342587Y-81706071D01*
X229449746Y-81674607D01*
X229480675Y-81665526D01*
X229480675Y-81665525D01*
X229480678Y-81665525D01*
X229601753Y-81587715D01*
X229696002Y-81478945D01*
X229755790Y-81348029D01*
X229776272Y-81205572D01*
X229755790Y-81063115D01*
X229696002Y-80932199D01*
X229601753Y-80823429D01*
X229480678Y-80745619D01*
X229480676Y-80745618D01*
X229480674Y-80745617D01*
X229480675Y-80745617D01*
X229342588Y-80705072D01*
X229342586Y-80705072D01*
X229317169Y-80705072D01*
X229250130Y-80685387D01*
X229229488Y-80668753D01*
X218649793Y-70089058D01*
X243160106Y-70089058D01*
X243160142Y-70089605D01*
X243160142Y-70152410D01*
X243188874Y-70361457D01*
X243197407Y-70423536D01*
X243197408Y-70423542D01*
X243271244Y-70687065D01*
X243380275Y-70938081D01*
X243522471Y-71171913D01*
X243522473Y-71171915D01*
X243522474Y-71171917D01*
X243552813Y-71209208D01*
X243695184Y-71384206D01*
X243695187Y-71384208D01*
X243695188Y-71384210D01*
X243776122Y-71459797D01*
X243895202Y-71571011D01*
X244118777Y-71728827D01*
X244118783Y-71728831D01*
X244118785Y-71728832D01*
X244361778Y-71854741D01*
X244361781Y-71854742D01*
X244619646Y-71946388D01*
X244619662Y-71946393D01*
X244809897Y-71985923D01*
X244887602Y-72002070D01*
X244887603Y-72002071D01*
X244905083Y-72003266D01*
X245160642Y-72020747D01*
X245433680Y-72002071D01*
X245554262Y-71977013D01*
X245701621Y-71946393D01*
X245701627Y-71946390D01*
X245701632Y-71946390D01*
X245959506Y-71854741D01*
X246202499Y-71728832D01*
X246426084Y-71571009D01*
X246626096Y-71384210D01*
X246798810Y-71171917D01*
X246941007Y-70938083D01*
X246947963Y-70922070D01*
X246985657Y-70835288D01*
X247050040Y-70687064D01*
X247123877Y-70423537D01*
X247161142Y-70152410D01*
X247161142Y-70015572D01*
X247164010Y-64089880D01*
X247164047Y-64089354D01*
X247164047Y-64015571D01*
X247164057Y-63994194D01*
X247164079Y-63949922D01*
X247164078Y-63949919D01*
X247164082Y-63942152D01*
X247164047Y-63941601D01*
X247164047Y-63878732D01*
X247146183Y-63748761D01*
X247126782Y-63607607D01*
X247052945Y-63344080D01*
X246965584Y-63142954D01*
X246943913Y-63093062D01*
X246801717Y-62859230D01*
X246629004Y-62646937D01*
X246428986Y-62460132D01*
X246205411Y-62302316D01*
X246205405Y-62302312D01*
X245962407Y-62176401D01*
X245704542Y-62084755D01*
X245704526Y-62084750D01*
X245436587Y-62029073D01*
X245436585Y-62029072D01*
X245163547Y-62010397D01*
X244890508Y-62029072D01*
X244890506Y-62029073D01*
X244622567Y-62084750D01*
X244622551Y-62084755D01*
X244364686Y-62176401D01*
X244121688Y-62302312D01*
X244121682Y-62302316D01*
X243898107Y-62460132D01*
X243698089Y-62646937D01*
X243525376Y-62859230D01*
X243383180Y-63093062D01*
X243274149Y-63344078D01*
X243200313Y-63607601D01*
X243200312Y-63607607D01*
X243163047Y-63878732D01*
X243163047Y-64015585D01*
X243160176Y-69941556D01*
X243160142Y-69942101D01*
X243160142Y-70015193D01*
X243160106Y-70089058D01*
X218649793Y-70089058D01*
X218565838Y-70005103D01*
X218565833Y-70005099D01*
X218485911Y-69958957D01*
X218485909Y-69958956D01*
X218466519Y-69953761D01*
X218466518Y-69953760D01*
X218466518Y-69953761D01*
X218423001Y-69942101D01*
X218396769Y-69935072D01*
X218396768Y-69935072D01*
X199070125Y-69935072D01*
X199003086Y-69915387D01*
X198957331Y-69862583D01*
X198946125Y-69811072D01*
X198946125Y-64011576D01*
X198919206Y-63876249D01*
X198919205Y-63876248D01*
X198919205Y-63876244D01*
X198889948Y-63805611D01*
X198866402Y-63748765D01*
X198866401Y-63748763D01*
X198866400Y-63748761D01*
X198855399Y-63732297D01*
X198818480Y-63677044D01*
X198789737Y-63634026D01*
X197767170Y-62611459D01*
X197652432Y-62534794D01*
X197524957Y-62481993D01*
X197524947Y-62481990D01*
X197389621Y-62455072D01*
X197389619Y-62455072D01*
X197389618Y-62455072D01*
X194289619Y-62455072D01*
X194151631Y-62455072D01*
X194151629Y-62455072D01*
X194016302Y-62481990D01*
X194016292Y-62481993D01*
X193888817Y-62534794D01*
X193774079Y-62611459D01*
X193774078Y-62611460D01*
X185041787Y-71343753D01*
X184980464Y-71377238D01*
X184954106Y-71380072D01*
X163326628Y-71380072D01*
X163218215Y-71401637D01*
X163218214Y-71401637D01*
X163202004Y-71404861D01*
X163191294Y-71406992D01*
X163152579Y-71423029D01*
X163063816Y-71459795D01*
X162962743Y-71527331D01*
X162962742Y-71527332D01*
X162949079Y-71536460D01*
X162949078Y-71536461D01*
X160166787Y-74318753D01*
X160105464Y-74352238D01*
X160079106Y-74355072D01*
X148312144Y-74355072D01*
X148245105Y-74335387D01*
X148224463Y-74318753D01*
X146192171Y-72286460D01*
X146192170Y-72286459D01*
X146077432Y-72209794D01*
X145949957Y-72156993D01*
X145949947Y-72156990D01*
X145814621Y-72130072D01*
X145814619Y-72130072D01*
X145814618Y-72130072D01*
X140139618Y-72130072D01*
X104587144Y-72130072D01*
X104520105Y-72110387D01*
X104499463Y-72093753D01*
X104425852Y-72020142D01*
X104416017Y-72009055D01*
X104410531Y-72002071D01*
X104403888Y-71993613D01*
X104375544Y-71969318D01*
X104368561Y-71962851D01*
X104342169Y-71936459D01*
X104330122Y-71928410D01*
X104325830Y-71925542D01*
X104314021Y-71916585D01*
X104299130Y-71903820D01*
X104299125Y-71903816D01*
X104299121Y-71903813D01*
X104290557Y-71898997D01*
X104266583Y-71885514D01*
X104258479Y-71880538D01*
X104227437Y-71859797D01*
X104209291Y-71852281D01*
X104195968Y-71845804D01*
X104178848Y-71836177D01*
X104143360Y-71824576D01*
X104134441Y-71821276D01*
X104099958Y-71806993D01*
X104099950Y-71806991D01*
X104080686Y-71803159D01*
X104066358Y-71799406D01*
X104047696Y-71793306D01*
X104047691Y-71793305D01*
X104042654Y-71792699D01*
X104010613Y-71788849D01*
X104001235Y-71787355D01*
X103982582Y-71783645D01*
X103964620Y-71780072D01*
X103964619Y-71780072D01*
X103944981Y-71780072D01*
X103930191Y-71779187D01*
X103922308Y-71778239D01*
X103910690Y-71776844D01*
X103910689Y-71776844D01*
X103873473Y-71779707D01*
X103863963Y-71780072D01*
X103826631Y-71780072D01*
X103807350Y-71783906D01*
X103792685Y-71785921D01*
X103773111Y-71787427D01*
X103762335Y-71790445D01*
X103737162Y-71797496D01*
X103727921Y-71799706D01*
X103691300Y-71806991D01*
X103691298Y-71806991D01*
X103691297Y-71806992D01*
X103690149Y-71807467D01*
X103689502Y-71807536D01*
X103685477Y-71808758D01*
X103685245Y-71807993D01*
X103620680Y-71814927D01*
X103558205Y-71783645D01*
X103549004Y-71774108D01*
X103526753Y-71748429D01*
X103405678Y-71670619D01*
X103405676Y-71670618D01*
X103405674Y-71670617D01*
X103405675Y-71670617D01*
X103267588Y-71630072D01*
X103267586Y-71630072D01*
X103123664Y-71630072D01*
X103123661Y-71630072D01*
X102985576Y-71670616D01*
X102985567Y-71670621D01*
X102915967Y-71715349D01*
X102896385Y-71725593D01*
X102813810Y-71759798D01*
X102699087Y-71836454D01*
X102699079Y-71836460D01*
X102601513Y-71934026D01*
X102601510Y-71934030D01*
X102524853Y-72048754D01*
X102524846Y-72048767D01*
X102472046Y-72176239D01*
X102472043Y-72176249D01*
X102445125Y-72311576D01*
X102445125Y-72311579D01*
X102445125Y-72711578D01*
X102445125Y-72711579D01*
X102445125Y-72849565D01*
X102445125Y-72849567D01*
X102445124Y-72849567D01*
X95230165Y-72849567D01*
X95241078Y-72809548D01*
X95242819Y-72803738D01*
X95257915Y-72757535D01*
X95258910Y-72749232D01*
X95262394Y-72731391D01*
X95264595Y-72723323D01*
X95267987Y-72674867D01*
X95268561Y-72668802D01*
X95340869Y-72066241D01*
X95340943Y-72065639D01*
X95343066Y-72048754D01*
X95349260Y-71999481D01*
X95349259Y-71999478D01*
X95349272Y-71999382D01*
X95349304Y-71997898D01*
X95349320Y-71997232D01*
X95349362Y-71995632D01*
X95349354Y-71995535D01*
X95349355Y-71995532D01*
X95344230Y-71929037D01*
X95344183Y-71928410D01*
X95341119Y-71885514D01*
X95298313Y-71286243D01*
X95298250Y-71269522D01*
X95299095Y-71256275D01*
X95293312Y-71212959D01*
X95292540Y-71205406D01*
X95289529Y-71163254D01*
X95289429Y-71161846D01*
X95285917Y-71149042D01*
X95282593Y-71132661D01*
X95280837Y-71119502D01*
X95266718Y-71078155D01*
X95264487Y-71070897D01*
X95252936Y-71028775D01*
X95246997Y-71016908D01*
X95240534Y-71001472D01*
X95236248Y-70988918D01*
X95214334Y-70951120D01*
X95210732Y-70944443D01*
X95191182Y-70905376D01*
X95183037Y-70894890D01*
X95173695Y-70881023D01*
X95167040Y-70869543D01*
X95138179Y-70836753D01*
X95133332Y-70830892D01*
X95106542Y-70796399D01*
X95096508Y-70787702D01*
X95084647Y-70775931D01*
X95075874Y-70765964D01*
X95059367Y-70753345D01*
X95041174Y-70739437D01*
X95035283Y-70734640D01*
X95002270Y-70706029D01*
X95002267Y-70706027D01*
X95002266Y-70706026D01*
X94990725Y-70699452D01*
X94976791Y-70690219D01*
X94975884Y-70689526D01*
X94966249Y-70682160D01*
X94927051Y-70662916D01*
X94920329Y-70659357D01*
X94882362Y-70637733D01*
X94869764Y-70633538D01*
X94854302Y-70627202D01*
X94842395Y-70621357D01*
X94842382Y-70621352D01*
X94800182Y-70610126D01*
X94792894Y-70607946D01*
X94781011Y-70603990D01*
X94751443Y-70594146D01*
X94751440Y-70594145D01*
X94751438Y-70594145D01*
X94743517Y-70593149D01*
X94738262Y-70592489D01*
X94721859Y-70589291D01*
X94709035Y-70585880D01*
X94709036Y-70585880D01*
X94665454Y-70583102D01*
X94657881Y-70582385D01*
X94626802Y-70578479D01*
X94614534Y-70576937D01*
X94614533Y-70576937D01*
X94608441Y-70576773D01*
X94608503Y-70574439D01*
X94550358Y-70561774D01*
X94506713Y-70521849D01*
X94464739Y-70459030D01*
X94464737Y-70459027D01*
X94367170Y-70361460D01*
X94367166Y-70361457D01*
X94252442Y-70284800D01*
X94252429Y-70284793D01*
X94124957Y-70231993D01*
X94124947Y-70231990D01*
X94015308Y-70210181D01*
X93953397Y-70177796D01*
X93918823Y-70117080D01*
X93915500Y-70088564D01*
X93915500Y-65527572D01*
X93935185Y-65460533D01*
X93987989Y-65414778D01*
X94039500Y-65403572D01*
X94084750Y-65403572D01*
X94084751Y-65403571D01*
X94099568Y-65400624D01*
X94143229Y-65391940D01*
X94143229Y-65391939D01*
X94143231Y-65391939D01*
X94209552Y-65347624D01*
X94253867Y-65281303D01*
X94253867Y-65281301D01*
X94253868Y-65281301D01*
X94265499Y-65222824D01*
X94265500Y-65222822D01*
X94265500Y-64353072D01*
X94699417Y-64353072D01*
X94719699Y-64559004D01*
X94719700Y-64559006D01*
X94779768Y-64757026D01*
X94877315Y-64939522D01*
X94877317Y-64939524D01*
X95008589Y-65099482D01*
X95105209Y-65178774D01*
X95168550Y-65230757D01*
X95351046Y-65328304D01*
X95549066Y-65388372D01*
X95549065Y-65388372D01*
X95567529Y-65390190D01*
X95755000Y-65408655D01*
X95960934Y-65388372D01*
X96158954Y-65328304D01*
X96341450Y-65230757D01*
X96501410Y-65099482D01*
X96632685Y-64939522D01*
X96730232Y-64757026D01*
X96790300Y-64559006D01*
X96810583Y-64353072D01*
X96790300Y-64147138D01*
X96730232Y-63949118D01*
X96632685Y-63766622D01*
X96559171Y-63677044D01*
X96501410Y-63606661D01*
X96383677Y-63510041D01*
X96341450Y-63475387D01*
X96158954Y-63377840D01*
X95960934Y-63317772D01*
X95960932Y-63317771D01*
X95960934Y-63317771D01*
X95755000Y-63297489D01*
X95549067Y-63317771D01*
X95351043Y-63377841D01*
X95282642Y-63414403D01*
X95168550Y-63475387D01*
X95168548Y-63475388D01*
X95168547Y-63475389D01*
X95008589Y-63606661D01*
X94877317Y-63766619D01*
X94779769Y-63949115D01*
X94719699Y-64147139D01*
X94699417Y-64353072D01*
X94265500Y-64353072D01*
X94265500Y-63483321D01*
X94265499Y-63483319D01*
X94253868Y-63424842D01*
X94253867Y-63424841D01*
X94209552Y-63358519D01*
X94143230Y-63314204D01*
X94143229Y-63314203D01*
X94084752Y-63302572D01*
X94084748Y-63302572D01*
X92345252Y-63302572D01*
X92345247Y-63302572D01*
X92286770Y-63314203D01*
X92286769Y-63314204D01*
X92220447Y-63358519D01*
X92176132Y-63424841D01*
X92176131Y-63424842D01*
X92164500Y-63483319D01*
X92164500Y-65222824D01*
X92176131Y-65281301D01*
X92176132Y-65281302D01*
X92220447Y-65347624D01*
X92286769Y-65391939D01*
X92286770Y-65391940D01*
X92345247Y-65403571D01*
X92345250Y-65403572D01*
X92345252Y-65403572D01*
X92390500Y-65403572D01*
X92457539Y-65423257D01*
X92503294Y-65476061D01*
X92514500Y-65527572D01*
X92514500Y-70081072D01*
X92494815Y-70148111D01*
X92442011Y-70193866D01*
X92390500Y-70205072D01*
X92126630Y-70205072D01*
X91991302Y-70231990D01*
X91991292Y-70231993D01*
X91863820Y-70284793D01*
X91863807Y-70284800D01*
X91749083Y-70361457D01*
X91749079Y-70361460D01*
X91651513Y-70459026D01*
X91651510Y-70459030D01*
X91574853Y-70573754D01*
X91574846Y-70573767D01*
X91522046Y-70701239D01*
X91522043Y-70701249D01*
X91495125Y-70836576D01*
X91495125Y-70836579D01*
X91495125Y-72086578D01*
X91495125Y-72224566D01*
X91495125Y-72224568D01*
X91495124Y-72224568D01*
X91522043Y-72359894D01*
X91522046Y-72359904D01*
X91574847Y-72487379D01*
X91651512Y-72602117D01*
X91651513Y-72602118D01*
X92201511Y-73152114D01*
X92270391Y-73220994D01*
X92299084Y-73249687D01*
X92413807Y-73326343D01*
X92413811Y-73326345D01*
X92413814Y-73326347D01*
X92437951Y-73336344D01*
X92492354Y-73380183D01*
X92514421Y-73446477D01*
X92514500Y-73450906D01*
X92514500Y-73468941D01*
X92514500Y-73468943D01*
X92514499Y-73468943D01*
X92541418Y-73604269D01*
X92541421Y-73604279D01*
X92594222Y-73731753D01*
X92594224Y-73731756D01*
X92594225Y-73731758D01*
X92613792Y-73761042D01*
X92670887Y-73846492D01*
X113124079Y-94299684D01*
X113124082Y-94299686D01*
X113210158Y-94357200D01*
X113241242Y-94377969D01*
X113286048Y-94431581D01*
X113294755Y-94500906D01*
X113264601Y-94563934D01*
X113205158Y-94600654D01*
X113172352Y-94605072D01*
X111567169Y-94605072D01*
X111500130Y-94585387D01*
X111479488Y-94568753D01*
X92120838Y-75210103D01*
X92120833Y-75210099D01*
X92040915Y-75163959D01*
X92040914Y-75163958D01*
X92040913Y-75163958D01*
X91951769Y-75140072D01*
X91951768Y-75140072D01*
X90230983Y-75140072D01*
X90163944Y-75120387D01*
X90118189Y-75067583D01*
X90108044Y-75032257D01*
X90106368Y-75019528D01*
X90099234Y-74965336D01*
X90041245Y-74825339D01*
X89948998Y-74705121D01*
X89828780Y-74612874D01*
X89828776Y-74612872D01*
X89765348Y-74586599D01*
X89688783Y-74554885D01*
X89674718Y-74553033D01*
X89576274Y-74540072D01*
X89576267Y-74540072D01*
X87750827Y-74540072D01*
X87750819Y-74540072D01*
X87638311Y-74554885D01*
X87638310Y-74554885D01*
X87498317Y-74612872D01*
X87378096Y-74705121D01*
X87285847Y-74825342D01*
X87227860Y-74965335D01*
X87227860Y-74965336D01*
X87213047Y-75077844D01*
X59189047Y-75077844D01*
X59189047Y-70014058D01*
X60210106Y-70014058D01*
X60210142Y-70014605D01*
X60210142Y-70077411D01*
X60226148Y-70193866D01*
X60231388Y-70231992D01*
X60247407Y-70348536D01*
X60247408Y-70348542D01*
X60321244Y-70612065D01*
X60430275Y-70863081D01*
X60572471Y-71096913D01*
X60745184Y-71309206D01*
X60745187Y-71309208D01*
X60745188Y-71309210D01*
X60867058Y-71423029D01*
X60945202Y-71496011D01*
X61168777Y-71653827D01*
X61168783Y-71653831D01*
X61168785Y-71653832D01*
X61411778Y-71779741D01*
X61488457Y-71806993D01*
X61669646Y-71871388D01*
X61669662Y-71871393D01*
X61859897Y-71910923D01*
X61937602Y-71927070D01*
X61937603Y-71927071D01*
X61955083Y-71928266D01*
X62210642Y-71945747D01*
X62483680Y-71927071D01*
X62604262Y-71902013D01*
X62751621Y-71871393D01*
X62751627Y-71871390D01*
X62751632Y-71871390D01*
X63009506Y-71779741D01*
X63252499Y-71653832D01*
X63476084Y-71496009D01*
X63676096Y-71309210D01*
X63848810Y-71096917D01*
X63991007Y-70863083D01*
X64100040Y-70612064D01*
X64173877Y-70348537D01*
X64211142Y-70077410D01*
X64211142Y-69940572D01*
X64214010Y-64014880D01*
X64214047Y-64014354D01*
X64214047Y-63940571D01*
X64214055Y-63924606D01*
X64214079Y-63874922D01*
X64214078Y-63874919D01*
X64214082Y-63867152D01*
X64214047Y-63866601D01*
X64214047Y-63803732D01*
X64204228Y-63732295D01*
X64176782Y-63532607D01*
X64102945Y-63269080D01*
X64018069Y-63073676D01*
X63993913Y-63018062D01*
X63851717Y-62784230D01*
X63840610Y-62770578D01*
X63740021Y-62646937D01*
X63679004Y-62571937D01*
X63478986Y-62385132D01*
X63255411Y-62227316D01*
X63255405Y-62227312D01*
X63012407Y-62101401D01*
X62754542Y-62009755D01*
X62754526Y-62009750D01*
X62486587Y-61954073D01*
X62486585Y-61954072D01*
X62213547Y-61935397D01*
X61940508Y-61954072D01*
X61940506Y-61954073D01*
X61672567Y-62009750D01*
X61672551Y-62009755D01*
X61414686Y-62101401D01*
X61171688Y-62227312D01*
X61171682Y-62227316D01*
X60948107Y-62385132D01*
X60748089Y-62571937D01*
X60575376Y-62784230D01*
X60433180Y-63018062D01*
X60324149Y-63269078D01*
X60250313Y-63532601D01*
X60250312Y-63532607D01*
X60220009Y-63753084D01*
X60213047Y-63803734D01*
X60213047Y-63939791D01*
X60212978Y-64081464D01*
X60210176Y-69866556D01*
X60210142Y-69867101D01*
X60210142Y-69940193D01*
X60210106Y-70014058D01*
X59189047Y-70014058D01*
X59189047Y-63993825D01*
X59189217Y-63987334D01*
X59191220Y-63949115D01*
X59205143Y-63683521D01*
X59206497Y-63670645D01*
X59253589Y-63373345D01*
X59256283Y-63360676D01*
X59334184Y-63069956D01*
X59338191Y-63057628D01*
X59446055Y-62776642D01*
X59451333Y-62764786D01*
X59587978Y-62496608D01*
X59594448Y-62485401D01*
X59758388Y-62232957D01*
X59765996Y-62222485D01*
X59955421Y-61988567D01*
X59964090Y-61978940D01*
X60176918Y-61766111D01*
X60186541Y-61757445D01*
X60420461Y-61568020D01*
X60430936Y-61560410D01*
X60683383Y-61396467D01*
X60694580Y-61390002D01*
X60962784Y-61253343D01*
X60974618Y-61248076D01*
X61255600Y-61140212D01*
X61267933Y-61136205D01*
X61558664Y-61058300D01*
X61571320Y-61055610D01*
X61868620Y-61008518D01*
X61881496Y-61007164D01*
X62171666Y-60991952D01*
X62185219Y-60991242D01*
X62191710Y-60991072D01*
X99950953Y-60991072D01*
X100017992Y-61010757D01*
G37*
%TD.AperFunction*%
%TD*%
%TA.AperFunction,Conductor*%
%TO.N,Net-(M2--)*%
G36*
X220613664Y-74075257D02*
G01*
X220659419Y-74128061D01*
X220670625Y-74179572D01*
X220670625Y-76156572D01*
X220650940Y-76223611D01*
X220598136Y-76269366D01*
X220546625Y-76280572D01*
X216794625Y-76280572D01*
X216727586Y-76260887D01*
X216681831Y-76208083D01*
X216670625Y-76156572D01*
X216670625Y-74179572D01*
X216690310Y-74112533D01*
X216743114Y-74066778D01*
X216794625Y-74055572D01*
X220546625Y-74055572D01*
X220613664Y-74075257D01*
G37*
%TD.AperFunction*%
%TD*%
%TA.AperFunction,Conductor*%
%TO.N,Net-(M2-+)*%
G36*
X220613664Y-76725257D02*
G01*
X220659419Y-76778061D01*
X220670625Y-76829572D01*
X220670625Y-78831572D01*
X220650940Y-78898611D01*
X220598136Y-78944366D01*
X220546625Y-78955572D01*
X216794625Y-78955572D01*
X216727586Y-78935887D01*
X216681831Y-78883083D01*
X216670625Y-78831572D01*
X216670625Y-76829572D01*
X216690310Y-76762533D01*
X216743114Y-76716778D01*
X216794625Y-76705572D01*
X220546625Y-76705572D01*
X220613664Y-76725257D01*
G37*
%TD.AperFunction*%
%TD*%
M02*
